<svg width="50" height="50" viewBox="0 0 50 50" fill="none" xmlns="http://www.w3.org/2000/svg">
<path d="M45.3409 17.7272C45.25 17.1969 45.0682 16.6893 44.7993 16.2234C44.5227 15.8332 44.1856 15.4961 43.7993 15.2158C41.5227 13.4393 32.3636 7.8787 29.9849 7.49991C29.6477 7.42036 29.2955 7.46203 28.9849 7.60976C28.5265 7.89764 28.4394 8.49991 28.4091 9.034C28.3636 9.86733 28.3902 11.2651 28.4432 12.8143C31.1591 14.4545 33.572 16.034 34.7046 16.9014C35.1932 17.2537 35.6212 17.6855 35.9697 18.1779C36.3106 18.7613 36.5455 19.4052 36.6553 20.0719C36.9924 21.6363 37.0985 25.0492 37.1099 28.3143C39.5796 29.7726 42.0606 31.1855 42.8712 31.4923C43.2993 31.6742 43.7614 31.7613 44.2235 31.7423C44.6932 31.7158 45.125 31.4696 45.3826 31.0719C45.5417 30.7423 45.6174 30.3787 45.6061 30.0151C45.6818 28.4242 45.8674 20.1855 45.3409 17.7272Z" fill="white"/>
<path d="M34.7046 16.9015C35.1932 17.2537 35.6212 17.6856 35.9697 18.178C36.3106 18.7613 36.5455 19.4053 36.6553 20.0719C36.8485 20.9734 36.9659 22.4848 37.0341 24.231C38.0947 24.9128 39.4394 25.7651 39.7803 25.9318C39.8375 26.3906 39.9883 26.8329 40.2235 27.231L41.5227 26.8181L42.6402 27.3674C42.6818 25.5037 42.6288 23.6401 42.4811 21.7803L42.2349 17.0075C42.2349 17.0075 31.8712 10.6893 31.8561 10.909C31.7841 11.9166 31.7576 13.5 31.7652 14.8863C33.0341 15.7045 34.072 16.4166 34.7046 16.9015Z" fill="#FFDD61"/>
<path d="M45.7803 18.1213C45.7007 17.4054 45.4545 16.716 45.0606 16.11C44.6856 15.6441 44.2386 15.2388 43.7386 14.9092C42.947 14.3297 42.125 13.7918 41.2992 13.2653C39.0795 11.8675 36.8257 10.5304 34.5189 9.30694C33.5568 8.79558 32.5795 8.29179 31.5757 7.87891C30.8182 7.55694 29.8068 7.12133 28.9659 7.34103C28.2348 7.53421 28.0909 8.27285 28.0492 8.93194C28.0492 8.95088 28.0568 8.96603 28.0644 8.98118C28.0341 10.1819 28.0379 11.3865 28.0682 12.5872C28.322 12.7388 28.572 12.8903 28.8182 13.0418C28.7879 12.1516 28.7651 11.2577 28.7651 10.3638C28.7651 9.95845 28.7651 9.54936 28.7879 9.14406C28.7879 9.12512 28.7765 9.10618 28.7689 9.09103C28.8295 8.27664 29.0909 7.51527 30.0947 7.71224C30.3712 7.77664 30.6401 7.85997 30.9015 7.96603C31.8068 8.32967 32.6932 8.74255 33.553 9.20088C35.7386 10.3372 37.8636 11.5797 39.9507 12.8827C40.8144 13.4206 41.6704 13.9698 42.5114 14.5456C43.5038 15.2236 44.4962 15.9016 44.8485 17.1251C45.0833 18.0721 45.2083 19.0418 45.2273 20.0191C45.2954 21.2122 45.322 22.413 45.3295 23.61C45.3485 25.6516 45.3295 27.7009 45.2462 29.7463C45.2159 30.466 45.1288 31.216 44.3409 31.4774C43.7538 31.6706 43.1401 31.4357 42.6098 31.1819C41.8939 30.8448 41.2083 30.4547 40.5189 30.0683C39.375 29.4244 38.2386 28.7615 37.1098 28.091V28.5001C37.9621 29.0039 38.8182 29.5039 39.6818 29.9925C40.4848 30.4471 41.2917 30.9054 42.1212 31.3145C43.072 31.788 44.3182 32.2501 45.2992 31.6403C46.1818 31.091 46.0038 29.7274 46.0303 28.8107C46.0606 27.6365 46.0757 26.4622 46.0795 25.288C46.0795 22.9206 46.1629 20.466 45.7803 18.1213Z" fill="#414247"/>
<path d="M36.5114 19.4431C37.4621 20.0302 38.4091 20.6135 39.3712 21.1855C39.4129 21.212 39.5568 21.0984 39.5151 21.0719C38.4812 20.4604 37.4547 19.8366 36.4356 19.2007C36.4621 19.2802 36.4848 19.3635 36.5114 19.4431ZM35.5644 17.6779V16.4204C35.5644 16.3257 35.3939 16.2651 35.3826 16.3825V17.481C35.447 17.5454 35.5038 17.6135 35.5644 17.6779ZM42.5189 23.0302C42.0114 22.6628 41.4811 22.3257 40.928 22.0264C40.8977 22.0264 40.8447 21.9999 40.8333 22.0264C40.822 22.0529 40.8674 22.1135 40.8977 22.1287C41.4356 22.4204 41.9545 22.7499 42.4507 23.106C42.4773 23.106 42.5341 23.1514 42.5606 23.106C42.5871 23.0605 42.5606 23.0226 42.5189 23.0037V23.0302ZM38.303 14.6249V14.981C38.303 15.0984 38.2992 15.212 38.2841 15.3295C38.2841 15.3863 38.4659 15.4014 38.4735 15.3295C38.4886 15.212 38.4924 15.0984 38.4924 14.981V14.6249C38.4924 14.5643 38.303 14.5567 38.303 14.6249ZM39.8182 15.5908V15.9469C39.8182 16.0643 39.8144 16.1779 39.7992 16.2954C39.7992 16.3522 39.9811 16.3673 39.9886 16.2954C40.0038 16.1779 40.0076 16.0643 40.0076 15.9469V15.5908C40.0076 15.5302 39.8182 15.5226 39.8182 15.5908ZM42.6326 23.9507L42.3485 23.7385C42.3182 23.7158 42.2841 23.7007 42.25 23.6855C42.2045 23.6666 42.1591 23.6514 42.1098 23.6401H42.0227C42.0227 23.6514 42.0303 23.6628 42.0417 23.6704L42.322 23.8825C42.3523 23.9052 42.3864 23.9242 42.4242 23.9393C42.4697 23.9582 42.5151 23.9734 42.5644 23.981H42.6023C42.6212 23.9848 42.6364 23.9848 42.6553 23.981C42.6591 23.9712 42.6591 23.9604 42.6553 23.9507H42.6326ZM42.4583 25.7726L42.3068 25.6325C42.2907 25.6162 42.2691 25.6067 42.2462 25.606C42.2273 25.606 42.2083 25.6173 42.197 25.6325C42.178 25.6779 42.1894 25.7272 42.2273 25.7575L42.375 25.8976C42.3939 25.909 42.4129 25.9204 42.4356 25.9204C42.4545 25.9204 42.4735 25.9128 42.4848 25.8976C42.5076 25.8522 42.4962 25.7992 42.4583 25.7726ZM35.4167 12.9204V15.0037C35.4167 15.034 35.4621 15.0832 35.4773 15.1022C35.4924 15.1211 35.5303 15.1628 35.5303 15.1476V13.0643C35.5303 13.034 35.4886 12.9848 35.4697 12.9658C35.4507 12.9469 35.4167 12.9052 35.4167 12.9204Z" fill="#414247"/>
<path d="M31.6666 14.8221C31.731 14.8638 31.7954 14.9054 31.856 14.9433C31.8409 13.6516 31.8522 12.36 31.9356 11.0683C31.9962 11.1062 32.0606 11.1403 32.1288 11.163C32.3522 11.2766 32.5682 11.3979 32.7878 11.5191C33.4432 11.8903 34.0947 12.2691 34.7462 12.6554C36.3977 13.6289 38.0378 14.6138 39.6704 15.6024L41.4848 16.7009C41.6553 16.8069 41.8257 16.9206 42.0038 17.0153C42.0947 17.0683 42.1477 17.1441 42.125 17.0797C42.1666 17.2918 42.1856 17.5077 42.178 17.7236L42.2462 19.0153L42.375 21.5418C42.4735 23.4244 42.6704 25.3259 42.553 27.2122L41.9015 26.9016C41.7878 26.8183 41.6591 26.7615 41.5227 26.7312C41.1704 26.7956 40.8295 26.913 40.5113 27.0721C40.4356 27.091 40.3598 27.1175 40.2878 27.1479C40.1477 26.86 40.0265 26.5607 39.9242 26.2577C39.8674 26.0191 39.8977 25.9622 39.7348 25.8335C39.606 25.7463 39.4735 25.6706 39.3333 25.5986C38.5568 25.1289 37.7954 24.6289 37.0303 24.1441C37.0341 24.2009 37.0341 24.2577 37.0378 24.3145L37.678 24.7236C38.2348 25.0797 38.7916 25.4357 39.3598 25.7729C39.4621 25.8183 39.5568 25.8713 39.6439 25.9395C39.7575 26.0532 39.7538 26.2425 39.803 26.413C39.8674 26.7122 39.9772 27.0001 40.1288 27.2691C40.1553 27.3069 40.2083 27.3221 40.25 27.3032C40.6288 27.1706 41.0416 27.0721 41.3863 26.9244C41.4053 26.9244 41.4621 26.9092 41.4886 26.8979C41.5341 26.9282 41.6401 26.9736 41.6704 26.985L42.553 27.4206C42.5985 27.4433 42.7007 27.4206 42.7045 27.3638C42.7765 25.4812 42.7197 23.5948 42.5454 21.716C42.5 20.9585 42.4659 20.2009 42.428 19.4433L42.3522 17.985C42.375 17.6819 42.3598 17.3789 42.3068 17.0797C42.2386 16.8827 41.9697 16.7918 41.7916 16.7009L39.9545 15.5872C38.2462 14.5569 36.5454 13.5266 34.8144 12.5153C34.0568 12.0759 33.3257 11.6365 32.5682 11.2236C32.5 11.1857 32.1628 10.9622 31.9356 10.9092C31.9204 10.8221 31.7689 10.8221 31.7613 10.9016V10.9357C31.7538 10.9433 31.7424 10.9509 31.7348 10.9622C31.7235 10.9888 31.7348 11.0077 31.7538 11.0191C31.6742 12.2842 31.6515 13.5532 31.6666 14.8221ZM31.856 11.0266C31.8636 11.0266 31.8712 11.0304 31.8863 11.038C31.8522 11.0797 31.8333 11.0304 31.856 11.0266Z" fill="#414247"/>
<path d="M14.4546 9.44325C14.4887 8.76522 14.5985 7.98492 15.1819 7.64022C15.5758 7.4584 16.0228 7.41674 16.447 7.5228C19.4773 8.01901 31.0493 15.0342 33.9281 17.2842C34.4205 17.6364 34.8523 18.0682 35.2046 18.5607C35.5455 19.144 35.7804 19.7879 35.8902 20.4546C36.5607 23.5645 36.3258 33.9925 36.2273 36.0039C36.2425 36.466 36.144 36.9243 35.9432 37.341C35.7809 37.5878 35.5624 37.7927 35.3056 37.9389C35.0488 38.085 34.7611 38.1683 34.466 38.1819C33.8788 38.2046 33.2955 38.0948 32.7538 37.8637C30.6137 37.0455 19.2728 30.1402 18.0417 29.3182C17.1667 28.7349 16.2652 28.1175 15.7349 27.197C15.2046 26.2766 15.1288 25.2046 15.0379 24.1667C14.9092 22.3978 14.2804 12.6326 14.4546 9.44325Z" fill="#FFDD61"/>
<path d="M17.9621 24.1097C18.0909 20.5377 18.0303 16.9582 17.7803 13.3938C19.4772 14.0946 21.2121 15.2196 22.928 16.1211C24.0644 16.7271 25.2272 17.2309 26.3788 17.8029C28.4847 18.8603 30.5103 20.0706 32.4394 21.4241L32.3181 29.6476C32.3257 29.693 32.3144 29.7423 32.2878 29.7802C32.2424 29.818 32.1553 29.7802 32.0795 29.7423L29.1439 28.2726L28.9469 31.0074C28.9469 31.0794 28.9469 31.1552 28.8788 31.1817C28.8106 31.2082 28.75 31.1817 28.678 31.1438C27.5416 30.64 26.3788 30.0643 25.2235 29.4165C24.0681 28.7688 22.9962 28.1021 21.8825 27.4127L18.0947 25.0794C18.0454 25.0529 18 25.015 17.9659 24.9696C17.9361 24.9233 17.9203 24.8693 17.9204 24.8143C17.8977 24.5605 17.9204 24.3029 17.9848 24.0567" fill="white"/>
<path d="M18.1591 24.0756C18.2804 20.4999 18.2198 16.9241 17.9698 13.3559L17.7122 13.5529C19.3826 14.2537 20.9129 15.2385 22.5076 16.0984C24.1023 16.9582 25.6932 17.6135 27.2576 18.4506C28.822 19.284 30.341 20.2006 31.8031 21.2044C31.9811 21.3256 32.2084 21.4203 32.2614 21.6476C32.2841 21.8635 32.2841 22.087 32.2614 22.3029V23.7044L32.1743 26.5074V28.8521C32.1743 29.0226 32.2501 29.4923 32.0569 29.5264C31.8637 29.5605 31.5266 29.2612 31.3978 29.2006L30.7425 28.8749L29.2614 28.14C29.1591 28.087 28.9735 28.14 28.966 28.2726L28.8182 30.2802L28.7652 30.7271L28.7425 30.9999L28.6099 30.9279C28.2917 30.8294 27.9925 30.6893 27.7084 30.515C26.5114 29.943 25.3485 29.3067 24.2084 28.6211C23.0682 27.9355 21.9849 27.265 20.8788 26.5794L19.1478 25.5112C18.8902 25.3484 18.6061 25.2044 18.3637 25.0226C18.019 24.7688 18.0682 24.4544 18.1629 24.0529C18.216 23.8294 17.8448 23.8408 17.7841 24.0529C17.6705 24.5188 17.6061 24.9847 18.0379 25.2688C18.7349 25.7234 19.4546 26.1438 20.1591 26.5832C21.5266 27.4279 22.8902 28.2877 24.2804 29.1021C25.6364 29.9431 27.0531 30.6741 28.5266 31.284C28.947 31.443 29.072 31.2309 29.1061 30.8332C29.1819 29.9809 29.2311 29.1287 29.2917 28.2802L28.9925 28.4127L31.7955 29.7991C31.966 29.8824 32.2046 30.0415 32.394 29.9014C32.5834 29.7612 32.5038 29.2612 32.5076 29.0529L32.5985 22.7915V22.034C32.6288 21.8105 32.6288 21.5794 32.5985 21.3559C32.5569 21.2385 32.4091 21.1855 32.3107 21.1173L31.6288 20.6552C30.7841 20.0908 29.9243 19.5529 29.0493 19.0415C27.3069 18.0264 25.4773 17.2044 23.6743 16.3067C21.7008 15.3256 19.8637 14.0756 17.8258 13.2234C17.7999 13.2162 17.7729 13.2142 17.7463 13.2175C17.7196 13.2209 17.6939 13.2295 17.6706 13.2429C17.6474 13.2563 17.627 13.2742 17.6107 13.2956C17.5944 13.3169 17.5826 13.3413 17.5758 13.3673C17.572 13.3824 17.5682 13.4014 17.5682 13.4165C17.8258 16.9923 17.8978 20.5832 17.7804 24.1665C17.7804 24.3824 18.1402 24.2953 18.1591 24.0946V24.0756Z" fill="#414247"/>
<path d="M24.0265 16.8371C24.0758 17.8409 24.1364 18.8409 24.2121 19.8447C24.2121 20.0303 24.5644 20.1136 24.5492 19.8788C24.4697 18.875 24.4091 17.875 24.3636 16.8712C24.3636 16.6818 24.0152 16.5985 24.0265 16.8371ZM24.1629 21.2575C24.2083 22.8371 24.2917 24.4166 24.4129 25.9924C24.4129 26.1212 24.7462 26.303 24.7311 26.1174C24.6136 24.5416 24.5265 22.9659 24.4811 21.3825C24.4811 21.2538 24.1591 21.0719 24.1629 21.2575Z" fill="#414247"/>
<path d="M29.3106 28.1325L24.8409 25.9545C24.8015 25.9304 24.7563 25.9176 24.7102 25.9176C24.664 25.9176 24.6188 25.9304 24.5795 25.9545C24.534 25.9962 24.534 26.0681 24.5757 26.1136C24.5871 26.125 24.6022 26.1363 24.6212 26.1439L29.0871 28.3333C29.1628 28.3674 29.2878 28.3901 29.3522 28.3333C29.3977 28.2878 29.3939 28.2121 29.3484 28.1666C29.3382 28.1556 29.3251 28.1477 29.3106 28.1439V28.1325ZM29.3636 19.6894H29.3825L29.678 19.7234C29.7083 19.7537 29.7196 19.7613 29.7121 19.7462L29.6212 19.7689L29.4318 19.7386L29.3674 19.7083V20.053C29.3674 20.178 29.3674 20.3068 29.3939 20.4318C29.4204 20.5568 29.7727 20.5568 29.7727 20.4924C29.7575 20.3522 29.7499 20.2159 29.7499 20.0757V19.7803C29.7388 19.7418 29.7168 19.7074 29.6865 19.6812C29.6563 19.655 29.6191 19.6381 29.5795 19.6325C29.534 19.6325 29.2765 19.5795 29.3333 19.6969C29.3674 19.7386 29.4166 19.7689 29.4696 19.7765C29.5227 19.7841 29.5795 19.7841 29.6325 19.7765C29.6325 19.7765 29.6969 19.7765 29.7083 19.7537C29.7196 19.731 29.6249 19.6628 29.5909 19.6553C29.5432 19.6477 29.4946 19.6477 29.4469 19.6553C29.4204 19.6553 29.3674 19.6553 29.3522 19.6818L29.3636 19.6894ZM26.3636 18.125V18.1022V18.6136C26.356 18.6553 26.3674 18.7007 26.3901 18.7386C26.4141 18.7815 26.4495 18.8169 26.4924 18.8409C26.5643 18.8787 26.6477 18.8712 26.6704 18.7841C26.6742 18.7386 26.6742 18.6931 26.6704 18.6477V18.2841C26.6704 18.231 26.659 18.1818 26.6439 18.1325C26.6255 18.0864 26.5971 18.045 26.5606 18.0113C26.5277 17.9827 26.4866 17.9654 26.4431 17.9621C26.4258 17.9608 26.4085 17.9644 26.3931 17.9725C26.3777 17.9805 26.3649 17.9926 26.356 18.0075C26.3409 18.0454 26.3409 18.0871 26.356 18.125H26.3636ZM21.8068 15.625L21.7462 15.6439H21.5151C21.5151 15.6439 21.4621 15.6174 21.4734 15.6439C21.481 15.678 21.481 15.7159 21.4734 15.75V16.2424C21.4734 16.2613 21.5227 16.2689 21.5303 16.2689C21.5757 16.2727 21.6174 16.2727 21.6628 16.2689C21.7083 16.2689 21.7537 16.2613 21.7954 16.2462C21.7954 16.2462 21.8522 16.2462 21.8484 16.2121V15.7613C21.8522 15.7197 21.8522 15.678 21.8484 15.6363C21.8484 15.6212 21.8409 15.606 21.8295 15.5984C21.7878 15.5757 21.7386 15.5681 21.6931 15.5757C21.6454 15.5681 21.5969 15.5681 21.5492 15.5757C21.5227 15.5795 21.4999 15.5871 21.4772 15.5984C21.409 15.6363 21.5227 15.6553 21.5492 15.6553C21.5984 15.6591 21.6477 15.6591 21.6969 15.6553C21.7348 15.6515 21.7727 15.6439 21.8068 15.625ZM19.0606 14.3181L19.0378 14.2841C19.0454 14.303 19.053 14.3257 19.0606 14.3447V14.303C19.0757 14.3939 19.0871 14.4848 19.0946 14.5757V14.8068V14.7651C19.0795 14.8447 19.1287 14.9242 19.2083 14.9394C19.2196 14.9431 19.2272 14.9431 19.2386 14.9431C19.3371 14.9507 19.428 14.8901 19.4583 14.7954C19.4621 14.7462 19.4621 14.6969 19.4583 14.6477V14.4621C19.4545 14.4015 19.4469 14.3371 19.4356 14.2765C19.428 14.2083 19.409 14.1439 19.3749 14.0871C19.3447 14.0536 19.3026 14.0332 19.2575 14.0303C19.208 14.0275 19.1588 14.0408 19.1174 14.0681C19.0795 14.0947 19.053 14.1325 19.0378 14.178C19.0303 14.2197 19.0416 14.2651 19.0681 14.2992L19.0606 14.3181Z" fill="#414247"/>
<path d="M6.44313 19.0264C6.47343 18.4696 6.56434 17.8219 7.04162 17.5416C7.36737 17.3863 7.73859 17.3522 8.08707 17.4393C10.5833 17.8522 20.1287 23.6401 22.5037 25.4923C22.9053 25.784 23.2575 26.1401 23.5454 26.5454C23.8257 27.0264 24.0189 27.5529 24.1136 28.1022C24.6628 30.6704 24.4696 39.2688 24.3901 40.9279C24.4015 41.3105 24.3219 41.6855 24.1553 42.0302C24.0246 42.2349 23.8466 42.4051 23.6363 42.5264C23.426 42.6478 23.1895 42.7166 22.9469 42.7272C22.4621 42.7461 21.981 42.659 21.534 42.4658C19.7689 41.7954 10.4166 36.1022 9.41283 35.4241C8.68934 34.9355 7.93177 34.4279 7.49995 33.6779C7.06813 32.9279 6.98859 32.0264 6.92419 31.159C6.81813 29.712 6.29919 21.6552 6.44313 19.0264Z" fill="white"/>
<path d="M6.79547 19.1327C6.8485 18.2387 7.12123 17.4205 8.21214 17.6402C8.51138 17.7084 8.80683 17.8031 9.09093 17.9243C10.0493 18.3145 10.9849 18.7539 11.894 19.2425C14.1477 20.4167 16.3485 21.7084 18.5038 23.0531C19.4205 23.6251 20.3296 24.1895 21.2197 24.8183C22.2727 25.5417 23.2727 26.2539 23.6326 27.5607C23.8637 28.5304 23.9924 29.519 24.0114 30.5152C24.0834 31.7652 24.1099 33.019 24.1174 34.2728C24.1174 36.4016 24.1174 38.5342 24.0303 40.663C24 41.4205 23.9129 42.1781 23.1061 42.4546C22.5 42.5986 21.8561 42.5039 21.3182 42.1895C20.6023 41.8524 19.9091 41.4584 19.2197 41.0531C17.178 39.9167 15.1667 38.7122 13.1591 37.5039C11.7046 36.6971 10.2917 35.8107 8.92805 34.8524C8.13944 34.304 7.59586 33.4696 7.41289 32.5266C7.32199 31.9622 7.26517 31.394 7.23865 30.8221C7.17426 29.8751 7.11365 28.9281 7.06441 27.9811C6.93562 25.4736 6.79547 22.9546 6.79547 20.4395V19.1327C6.79547 18.8751 6.07956 18.7198 6.0682 18.9167C6.01138 21.3978 6.07956 23.8789 6.27274 26.3524C6.33714 27.5493 6.40532 28.7463 6.48486 29.9433C6.56441 31.1402 6.52274 32.4243 7.07199 33.5001C7.62123 34.5758 8.68941 35.1971 9.65532 35.8069C10.4129 36.2728 11.1477 36.7311 11.8977 37.1857C14.0114 38.4698 16.1364 39.7387 18.2879 40.9736C19.1061 41.4395 19.9318 41.9016 20.7765 42.3183C21.7462 42.7993 23.0493 43.2728 24.0341 42.6478C24.9584 42.0721 24.7917 40.6516 24.7917 39.6895C24.822 38.4698 24.8409 37.2463 24.8447 36.0266C24.8447 33.5645 24.9205 31.0228 24.5417 28.5872C24.4659 27.8486 24.2273 27.1327 23.8409 26.4963C23.447 25.9811 22.9697 25.538 22.428 25.1819C21.6174 24.5872 20.7765 24.0455 19.928 23.4963C17.6553 22.0342 15.3068 20.644 12.9129 19.3675C11.8977 18.8258 10.8674 18.2955 9.81062 17.8524C9.0038 17.5114 7.99244 17.0645 7.0985 17.2501C6.29168 17.4054 6.12502 18.2046 6.07956 18.9167C6.06441 19.1743 6.79547 19.3334 6.79547 19.1327Z" fill="#414247"/>
<path d="M20.466 28.1021C20.6288 29.64 20.7122 31.1817 20.7084 32.7271L16.7576 30.693C16.9205 32.5642 16.7576 36.4733 16.7576 36.4733C16.7576 36.4733 13.6137 34.8938 13.0341 34.5339C12.9546 35.2271 12.6364 35.3635 12.6364 35.3635L11.2955 33.4695L10.1743 32.765C10.0493 30.9279 10.0228 29.087 10.0947 27.246L10.144 22.2953C10.144 22.2953 20.4319 27.8445 20.466 28.1021Z" fill="#FFDD61"/>
<path d="M20.3712 28.1135C20.5303 29.6513 20.6137 31.193 20.6137 32.7385L20.769 32.6627L16.8144 30.6324C16.7576 30.6021 16.6553 30.6324 16.6629 30.7082C16.7841 32.6248 16.7841 34.5528 16.6629 36.4695L16.8144 36.4127C15.572 35.7877 14.2841 35.1968 13.0947 34.4733C13.0455 34.443 12.9508 34.4733 12.9432 34.5301C12.8978 34.7612 12.822 34.9847 12.7122 35.193C12.7122 35.2157 12.6288 35.2574 12.625 35.2801C12.6212 35.3028 12.7122 35.3066 12.7197 35.318C12.6326 35.1665 12.5303 35.0225 12.4167 34.89L11.4925 33.5794C11.2172 33.2807 10.8832 33.0422 10.5114 32.8786C10.3712 32.7915 10.3031 32.7801 10.2576 32.6475C10.2159 32.4619 10.2008 32.2725 10.2046 32.0832C10.1781 31.6665 10.1629 31.2498 10.1553 30.8332C10.1137 28.9392 10.1819 27.0453 10.2008 25.1513L10.2387 22.2725L10.0872 22.3483C13.0606 23.9506 16.0417 25.5529 18.9659 27.2422C19.2955 27.4316 19.625 27.621 19.947 27.8218C20.0985 27.9013 20.2387 27.996 20.3712 28.1021C20.3978 28.1968 20.5872 28.1665 20.5606 28.0756C20.4849 27.8104 19.8031 27.5453 19.6061 27.4241C18.7955 26.943 17.9735 26.4847 17.1478 26.0225C15.2879 24.9847 13.4129 23.9619 11.5417 22.9468L10.2046 22.2347C10.1936 22.2277 10.1814 22.2229 10.1687 22.2206C10.1559 22.2184 10.1428 22.2186 10.1301 22.2215C10.1174 22.2243 10.1054 22.2296 10.0948 22.237C10.0842 22.2445 10.0752 22.254 10.0682 22.265C10.0606 22.2801 10.0531 22.2953 10.0531 22.3104C10.0531 23.943 10.0341 25.5718 10.0076 27.2044C10.0076 27.9619 9.96594 28.8938 9.96594 29.7119C9.96594 30.5301 9.96594 31.2725 10.0265 32.0529C10.0038 32.3066 10.0265 32.5642 10.0947 32.8104C10.2273 33.0188 10.7008 33.1892 10.9129 33.3256C11.2538 33.5718 11.5379 33.89 11.7425 34.2574L12.5455 35.3938C12.5758 35.4316 12.625 35.443 12.6705 35.4241C12.9887 35.2725 13.0796 34.8445 13.125 34.5377L12.9735 34.5945C14.1629 35.318 15.4508 35.9051 16.6932 36.5301C16.7387 36.5529 16.8447 36.5301 16.8447 36.4771C16.9697 34.5453 16.9697 32.6097 16.8447 30.6778L16.6932 30.7536L20.6478 32.7839C20.7084 32.8142 20.7993 32.7839 20.7993 32.7082C20.7955 31.1627 20.7159 29.621 20.5568 28.0832C20.5493 27.9885 20.3637 28.0188 20.3712 28.1135Z" fill="#414247"/>
<path d="M16.9848 30.8145C15.6969 30.1857 14.4621 29.4546 13.1969 28.7917C13.1515 28.769 13.0113 28.8864 13.053 28.9091C14.3219 29.572 15.5568 30.3031 16.8409 30.9281C16.8863 30.9508 17.0265 30.8334 16.9848 30.8145ZM10.1363 27.2804C10.6666 27.519 11.1818 27.7917 11.678 28.0948C11.7083 28.0948 11.7613 28.1213 11.7727 28.0948C11.784 28.0682 11.7348 28.0114 11.7083 27.9925C11.1969 27.6781 10.6666 27.4016 10.1212 27.1591C10.1157 27.1556 10.1096 27.1533 10.1032 27.1521C10.0968 27.151 10.0903 27.1511 10.0839 27.1525C10.0776 27.1539 10.0716 27.1566 10.0663 27.1603C10.061 27.1641 10.0565 27.1688 10.053 27.1743C10.0492 27.1819 10.0454 27.1932 10.0454 27.2008C10.0454 27.2463 10.0984 27.2804 10.1363 27.2955V27.2804Z" fill="#414247"/>
<path d="M14.1743 29.4697C14.1402 30.4356 14.1932 31.4053 14.322 32.3636C14.3409 32.4621 14.5152 32.3939 14.5 32.303C14.375 31.3636 14.3334 30.4167 14.3712 29.4697C14.3712 29.3599 14.1932 29.3977 14.1932 29.4697H14.1743ZM14.2728 33.303L14.3712 35.2689C14.3712 35.3182 14.5606 35.3258 14.5606 35.2689L14.4697 33.303C14.4697 33.2538 14.2803 33.2462 14.2803 33.303H14.2728ZM13.4887 24.1326V24.5114C13.4887 24.6364 13.5 24.7652 13.5152 24.8902C13.5152 24.9545 13.7122 24.9508 13.7046 24.8902C13.6894 24.7652 13.6781 24.6364 13.6781 24.5114V24.1326C13.6781 24.072 13.4849 24.0682 13.4887 24.1326ZM16.1667 25.6818C16.1894 25.8674 16.1667 26.0606 16.1894 26.2462C16.197 26.2955 16.2425 26.3333 16.2917 26.3333C16.3118 26.3333 16.3311 26.3254 16.3453 26.3111C16.3595 26.2969 16.3675 26.2777 16.3675 26.2576V26.2424C16.3485 26.0568 16.3675 25.8636 16.3447 25.678C16.3372 25.625 16.2955 25.5871 16.2425 25.5909C16.2318 25.5909 16.2213 25.593 16.2116 25.5973C16.2019 25.6016 16.1932 25.6079 16.186 25.6157C16.1789 25.6236 16.1735 25.6328 16.1701 25.6429C16.1668 25.653 16.1656 25.6637 16.1667 25.6742V25.6818ZM10.1137 29.2159L10.394 29.3295L10.4622 29.3523H10.5076C10.5152 29.3523 10.4584 29.3068 10.4546 29.3068L10.1743 29.1894H10.1023C10.0874 29.1856 10.0718 29.1856 10.0569 29.1894C10.0341 29.1894 10.1099 29.2349 10.1137 29.2386V29.2159ZM10.1137 31.1099L10.394 31.2235L10.4622 31.2462H10.5076C10.5152 31.2462 10.4584 31.2008 10.4546 31.2008L10.1743 31.0833L10.1023 31.0644C10.0874 31.0606 10.0718 31.0606 10.0569 31.0644C10.0341 31.0644 10.1099 31.1099 10.1137 31.1099Z" fill="#414247"/>
</svg>
