<svg width="50" height="50" viewBox="0 0 50 50" fill="none" xmlns="http://www.w3.org/2000/svg">
<path d="M24.8371 38.1855C24.8371 39.284 26.6439 39.7006 26.6439 39.7006C28.8674 40.8635 31.6136 40.0037 32.7803 37.7802C32.8523 37.6438 32.9167 37.4999 32.9735 37.3559C33.2037 37.6172 33.4832 37.8306 33.7959 37.9838C34.1086 38.137 34.4485 38.2271 34.796 38.2489C35.1436 38.2707 35.492 38.2238 35.8214 38.1109C36.1509 37.998 36.4548 37.8212 36.7159 37.5908C37.2161 37.1497 37.5318 36.5363 37.5999 35.8729C37.668 35.2094 37.4835 34.5447 37.0833 34.0112C37.4621 34.4847 38.2803 34.39 38.7235 33.9544C39.1279 33.4886 39.3908 32.9169 39.481 32.3067C39.6856 31.6627 39.75 30.9771 39.6629 30.3067C39.6122 29.973 39.4635 29.6618 39.2355 29.4129C39.0075 29.164 38.7106 28.9886 38.3826 28.909C38.7155 28.7678 39.0173 28.5625 39.2708 28.3047C39.5243 28.0468 39.7245 27.7415 39.8599 27.4063C39.9953 27.071 40.0634 26.7124 40.0601 26.3508C40.0569 25.9892 39.9824 25.6319 39.8409 25.2991C39.6901 24.945 39.467 24.6262 39.1859 24.3634C38.9047 24.1005 38.5718 23.8993 38.2083 23.7726C38.6591 22.9468 39.1212 22.0529 39.0265 21.1211C38.9318 20.1893 38 19.2802 37.1098 19.5832C38.0076 18.8521 38.2007 17.4961 37.8333 16.3976C37.6808 15.8405 37.3219 15.3624 36.8295 15.0605C36.5804 14.9186 36.2901 14.8668 36.0073 14.9137C35.7245 14.9606 35.4665 15.1034 35.2765 15.318C35.4204 14.0946 35.0417 12.7423 34.0568 11.9999C33.072 11.2574 31.447 11.3824 30.7916 12.4317C30.7611 12.0472 30.6549 11.6726 30.4793 11.3292C30.3037 10.9859 30.0621 10.6805 29.7682 10.4307C29.4744 10.1809 29.1342 9.99147 28.7671 9.87334C28.4 9.75521 28.0131 9.71068 27.6288 9.74229C27.1722 9.77915 26.7305 9.92236 26.3392 10.1605C25.9478 10.3986 25.6176 10.7249 25.375 11.1135C24.9962 11.7461 24.8523 16.4885 24.8523 17.2385C24.8523 25.0037 25.4091 27.568 25.3371 34.7082C25.2879 35.9203 25.053 37.1173 24.6439 38.2612L24.8371 38.1855Z" fill="#FFDD61"/>
<path d="M25.3599 11.1174C24.9811 11.75 24.8371 16.4924 24.8371 17.2424C24.8371 25.0076 25.394 27.572 25.322 34.7121C25.2765 35.9242 25.0493 37.1212 24.644 38.2614C24.5152 38.7159 24.2879 39.1364 23.9849 39.4962C23.5654 39.9244 23.0198 40.2072 22.428 40.303C20.4849 40.6818 18.3296 39.1364 18.2614 37.1629C17.7349 38.553 15.678 39.0568 14.572 38.0606C13.4659 37.0644 13.5871 35.2083 14.269 33.8636C13.1099 34.2424 11.7765 33.428 11.3902 32.2765C11.0417 31.0795 11.4318 29.7917 12.3902 28.9924C12.4887 28.9318 12.5606 28.8333 12.5909 28.7235C12.5876 28.6585 12.5708 28.5949 12.5414 28.5369C12.512 28.4788 12.4709 28.4275 12.4205 28.3864C11.8028 27.6454 11.4845 26.7003 11.5279 25.7366C11.5714 24.773 11.9735 23.8604 12.6553 23.178C11.6856 22.2651 11.6364 20.7386 12.5493 19.7689C12.8788 19.4204 13.303 19.178 13.769 19.0682C13.3395 18.5857 13.119 17.9526 13.1559 17.3077C13.1928 16.6629 13.4842 16.059 13.9659 15.6288C14.398 15.2421 14.9544 15.023 15.5341 15.0114C15.5078 14.4825 15.6023 13.9545 15.8103 13.4676C16.0184 12.9806 16.3345 12.5474 16.7349 12.2007C17.5682 11.5568 18.9015 11.5303 19.6137 12.3106C19.6001 11.7725 19.7523 11.2433 20.0498 10.7947C20.3473 10.3461 20.7756 9.99988 21.2765 9.80302C22.3182 9.44317 23.4773 9.77272 24.1705 10.6326C24.1705 10.6326 24.8371 11.8257 24.8371 12.375" fill="white"/>
<path d="M25.0114 10.9888C24.7197 11.5002 24.7235 12.235 24.6705 12.8032C24.5871 13.735 24.5379 14.6706 24.5038 15.6062C24.4205 17.8146 24.4735 20.0229 24.5531 22.2312C24.6326 24.4396 24.7803 26.7502 24.8712 29.0077C24.9167 30.2577 24.947 31.504 24.9546 32.754C25.0228 34.2994 24.875 35.8449 24.5114 37.3486C24.2917 38.1365 24.072 39.0229 23.4129 39.5683C23.1042 39.8096 22.7473 39.9819 22.3663 40.0734C21.9854 40.1648 21.5892 40.1735 21.2046 40.0986C20.5202 39.959 19.8986 39.6038 19.4309 39.085C18.9633 38.5662 18.6742 37.9112 18.6061 37.2161C18.5871 36.9623 17.9621 36.8373 17.8485 37.0759C17.3712 38.235 15.6818 38.8714 14.7349 37.8827C13.7235 36.8259 14.019 35.1062 14.6023 33.9206C14.7084 33.7085 14.0909 33.6441 13.9924 33.6744C12.769 34.0153 11.6894 32.8335 11.6326 31.6555C11.6023 31.0873 11.7311 30.5229 12.0114 30.0267C12.1478 29.7805 12.3144 29.5532 12.5076 29.3486C12.6515 29.2009 12.8864 29.057 12.9659 28.8486C13.0455 28.6403 12.8978 28.504 12.7803 28.3562C12.5947 28.1403 12.4356 27.9055 12.2993 27.6555C11.9519 26.9442 11.8342 26.1426 11.9625 25.3615C12.0907 24.5804 12.4586 23.8584 13.0152 23.2956C13.0531 23.2539 13.0531 23.1933 13.0152 23.1517C12.7227 22.8667 12.5105 22.5097 12.3997 22.1167C12.2889 21.7236 12.2836 21.3083 12.3841 20.9126C12.4847 20.5168 12.6877 20.1545 12.9727 19.862C13.2576 19.5695 13.6146 19.3572 14.0076 19.2464C14.1061 19.2199 14.1856 19.1365 14.1061 19.0418C12.9091 17.61 13.7652 15.307 15.6894 15.2009C15.75 15.2009 15.9053 15.1706 15.9053 15.0835C15.8712 14.1555 16.197 13.2502 16.8182 12.557C17.4584 11.9055 18.572 11.6252 19.2765 12.3411C19.3637 12.4282 19.9924 12.6479 19.9849 12.3827C19.9659 10.9661 21.2159 9.50774 22.7235 9.91304C23.2387 10.038 23.6743 10.3752 23.9243 10.8411C24.2008 11.288 24.3864 11.7843 24.4659 12.3032C24.4659 12.5759 25.2235 12.682 25.2235 12.4471C25.1478 11.8221 24.9281 11.2236 24.5796 10.6971C24.1494 10.0981 23.5026 9.69039 22.7765 9.56077C21.019 9.18198 19.2235 10.3676 19.2576 12.2502L19.9659 12.2843C19.5695 11.9066 19.0696 11.6555 18.5299 11.5631C17.9902 11.4706 17.4352 11.541 16.9356 11.7653C15.7046 12.2956 15.1818 13.682 15.1705 14.9396L15.3864 14.8221C14.9003 14.8368 14.4268 14.9808 14.0148 15.2391C13.6027 15.4973 13.2668 15.8607 13.0417 16.2918C12.8245 16.7477 12.7447 17.2568 12.812 17.7572C12.8792 18.2577 13.0907 18.7277 13.4205 19.11L13.5265 18.8903C12.8655 19.0504 12.295 19.4661 11.94 20.0462C11.5849 20.6263 11.4744 21.3235 11.6326 21.985C11.7462 22.4509 11.9849 22.8752 12.3258 23.2085V23.0608C11.9049 23.4787 11.584 23.9865 11.3872 24.546C11.1904 25.1056 11.1228 25.7024 11.1894 26.2918C11.2462 26.86 11.4281 27.4093 11.7197 27.9017C11.8712 28.1517 12.3371 28.5077 12.144 28.7994C11.9508 29.0911 11.6326 29.2729 11.447 29.5494C10.7614 30.5683 10.6288 31.9585 11.4015 32.9585C11.7597 33.4131 12.2417 33.7544 12.7895 33.9412C13.3372 34.1281 13.9273 34.1525 14.4887 34.0115L13.8788 33.7615C13.1402 35.2767 13.0114 37.5494 14.7387 38.4282C16.0871 39.1138 18.0076 38.6668 18.6137 37.2009L17.8561 37.0608C18.0228 39.4736 20.7879 41.0343 23.0152 40.36C23.666 40.1894 24.2311 39.7848 24.6023 39.2236C24.9762 38.5234 25.2394 37.7696 25.3826 36.9888C25.7614 35.4282 25.7008 33.8259 25.6818 32.2274C25.6212 27.1138 25.0985 22.0002 25.2046 16.8941C25.2235 15.8562 25.269 14.8183 25.3409 13.7805C25.375 13.2615 25.4167 12.7388 25.4849 12.2236C25.4962 11.8827 25.5682 11.5494 25.7008 11.235C25.8523 10.9888 25.1288 10.7956 25.0114 10.9888Z" fill="#414247"/>
<path d="M20.6439 14.9468V17.8635C20.6591 17.9468 20.6591 18.0264 20.6439 18.1097C20.6667 18.0605 20.7197 18.087 20.5985 18.0794C19.3447 18.015 18.072 18.0794 16.8106 18.0794C16.7978 18.0793 16.7853 18.0838 16.7755 18.0922C16.7658 18.1005 16.7594 18.1122 16.7576 18.1249V23.462C16.7576 23.5756 16.9318 23.6779 17.0303 23.6779H21.4015L21.1326 23.462V36.2006C21.1326 36.318 21.4545 36.4885 21.4545 36.3711V23.6362C21.4545 23.5226 21.2841 23.4203 21.1856 23.4203H16.8144L17.0871 23.6362V18.6817C17.0871 18.5794 17.1401 18.2726 17.0379 18.3408C17.1439 18.2726 17.5189 18.3408 17.6401 18.3408H20.9167C20.9432 18.3446 20.9659 18.3218 20.9697 18.2953V15.1211C20.9697 14.9999 20.6439 14.8332 20.6439 14.9468Z" fill="#414247"/>
<path d="M20.8068 19.4242C21.4763 19.4242 22.019 18.8816 22.019 18.2121C22.019 17.5427 21.4763 17 20.8068 17C20.1374 17 19.5947 17.5427 19.5947 18.2121C19.5947 18.8816 20.1374 19.4242 20.8068 19.4242Z" fill="#FFDD61"/>
<path d="M21.8333 18.2121C21.8333 18.7803 21.3712 19.2386 20.8068 19.2386C20.2386 19.2386 19.7803 18.7765 19.7803 18.2121C19.7803 17.6439 20.2424 17.1856 20.8068 17.1856C20.8674 17.1856 20.928 17.1894 20.9886 17.2007C21.4773 17.2954 21.8295 17.7197 21.8333 18.2121C21.8333 18.3181 21.9167 18.4015 22.0227 18.4015C22.1288 18.4015 22.2121 18.3181 22.2121 18.2121C22.213 18.0274 22.1774 17.8444 22.1074 17.6735C22.0374 17.5027 21.9343 17.3473 21.8041 17.2164C21.6739 17.0855 21.5191 16.9815 21.3486 16.9106C21.1781 16.8397 20.9953 16.8031 20.8106 16.803C20.6259 16.8021 20.4429 16.8377 20.2721 16.9077C20.1012 16.9777 19.9458 17.0808 19.8149 17.211C19.684 17.3412 19.5801 17.496 19.5091 17.6665C19.4382 17.837 19.4016 18.0199 19.4015 18.2045C19.4005 18.4123 19.4456 18.6177 19.5337 18.8059C19.6218 18.9941 19.7506 19.1604 19.9109 19.2927C20.0711 19.425 20.2587 19.5201 20.4602 19.571C20.6616 19.6219 20.8719 19.6274 21.0757 19.5871C21.3931 19.5209 21.6785 19.3487 21.885 19.0988C22.0915 18.849 22.2069 18.5362 22.2121 18.2121C22.2121 18.106 22.1288 18.0227 22.0227 18.0227C21.9167 18.0227 21.8333 18.1098 21.8333 18.2121Z" fill="#414247"/>
<path d="M16.9243 24.7614C17.5937 24.7614 18.1364 24.2187 18.1364 23.5493C18.1364 22.8798 17.5937 22.3372 16.9243 22.3372C16.2548 22.3372 15.7122 22.8798 15.7122 23.5493C15.7122 24.2187 16.2548 24.7614 16.9243 24.7614Z" fill="#FFDD61"/>
<path d="M17.9507 23.5494C17.9621 24.1176 17.5151 24.5873 16.9469 24.5987C16.3787 24.61 15.909 24.1631 15.8977 23.5949C15.8939 23.3941 15.9469 23.1934 16.0568 23.0229C16.3598 22.5419 16.9924 22.4017 17.4734 22.7047C17.7651 22.8903 17.9469 23.2085 17.9507 23.5494C17.9507 23.6555 18.034 23.7388 18.1401 23.7388C18.2462 23.7388 18.3295 23.6555 18.3295 23.5494C18.3254 23.2634 18.2355 22.9851 18.0713 22.7507C17.9072 22.5164 17.6765 22.3367 17.409 22.235C16.8522 22.0305 16.2272 22.1972 15.8484 22.6517C15.356 23.2464 15.4393 24.1328 16.034 24.6252C16.6287 25.1176 17.5151 25.0343 18.0075 24.4396C18.2159 24.1896 18.3295 23.8752 18.3295 23.5494C18.3295 23.4434 18.2462 23.36 18.1401 23.36C18.0378 23.36 17.9507 23.4472 17.9507 23.5494Z" fill="#414247"/>
<path d="M21.2917 24.7614C21.9611 24.7614 22.5038 24.2187 22.5038 23.5493C22.5038 22.8798 21.9611 22.3372 21.2917 22.3372C20.6223 22.3372 20.0796 22.8798 20.0796 23.5493C20.0796 24.2187 20.6223 24.7614 21.2917 24.7614Z" fill="#FFDD61"/>
<path d="M22.3182 23.5492C22.3182 24.1174 21.8599 24.5757 21.2917 24.5757C20.7235 24.5757 20.2652 24.1174 20.2652 23.5492C20.2652 22.981 20.7235 22.5227 21.2917 22.5227C21.5637 22.5235 21.8243 22.6319 22.0166 22.8243C22.209 23.0166 22.3174 23.2772 22.3182 23.5492C22.322 23.6553 22.4053 23.7386 22.5114 23.7386C22.6174 23.7386 22.7008 23.6553 22.7008 23.5492C22.7046 22.7727 22.0758 22.1401 21.2992 22.1401C20.5227 22.1401 19.8902 22.7651 19.8902 23.5417C19.8902 24.3182 20.5152 24.9507 21.2917 24.9507C21.3826 24.9507 21.4735 24.9432 21.5644 24.9242C21.8826 24.8598 22.1691 24.6881 22.3759 24.4378C22.5827 24.1876 22.6974 23.8739 22.7008 23.5492C22.7008 23.4986 22.6809 23.4501 22.6455 23.4139C22.6101 23.3778 22.5619 23.357 22.5114 23.356C22.4053 23.3598 22.3182 23.447 22.3182 23.5492ZM16.9129 30.072C17.6288 30.6742 18.3296 31.2916 19.0227 31.9242C19.3636 32.2348 19.7008 32.5492 20.0379 32.8674C20.3106 33.1288 20.5833 33.3598 20.9697 33.1742C21.0227 33.1515 21.2197 33.0568 21.2008 32.9773C21.1818 32.8977 21.0568 32.947 21.0038 32.9773C20.8826 33.0379 20.6439 32.8106 20.5682 32.7424L20.1061 32.303C19.8068 32.0227 19.5038 31.7424 19.197 31.4659C18.5871 30.9166 17.9659 30.3712 17.3371 29.8409C17.2235 29.7462 16.8523 30.0265 16.9129 30.0795V30.072Z" fill="#414247"/>
<path d="M21.2917 34.466C21.9611 34.466 22.5038 33.9233 22.5038 33.2539C22.5038 32.5844 21.9611 32.0417 21.2917 32.0417C20.6223 32.0417 20.0796 32.5844 20.0796 33.2539C20.0796 33.9233 20.6223 34.466 21.2917 34.466Z" fill="#FFDD61"/>
<path d="M22.3182 33.2538C22.3182 33.8182 21.8598 34.2765 21.2954 34.2765C20.731 34.2765 20.2727 33.8182 20.2727 33.2538C20.2727 32.6894 20.731 32.2311 21.2954 32.2311C21.356 32.2311 21.4204 32.2387 21.481 32.2462C21.9659 32.3409 22.3182 32.7614 22.3182 33.2538C22.322 33.3599 22.4053 33.4432 22.5113 33.4432C22.6174 33.4432 22.7007 33.3599 22.7007 33.2538C22.7007 32.4773 22.072 31.8485 21.2954 31.8485C20.5189 31.8485 19.8901 32.4773 19.8901 33.2538C19.8901 33.4611 19.936 33.6659 20.0245 33.8534C20.113 34.0409 20.2419 34.2064 20.4019 34.3382C20.562 34.47 20.7492 34.5648 20.9502 34.6157C21.1512 34.6666 21.3609 34.6723 21.5644 34.6326C21.8826 34.5668 22.1688 34.3942 22.3755 34.1434C22.5822 33.8926 22.6969 33.5788 22.7007 33.2538C22.7007 33.1478 22.6136 33.0644 22.5113 33.0644C22.4608 33.0644 22.4122 33.0842 22.3761 33.1197C22.3399 33.1551 22.3192 33.2032 22.3182 33.2538Z" fill="#414247"/>
<path d="M16.9243 31.0719C17.5937 31.0719 18.1364 30.5293 18.1364 29.8598C18.1364 29.1904 17.5937 28.6477 16.9243 28.6477C16.2548 28.6477 15.7122 29.1904 15.7122 29.8598C15.7122 30.5293 16.2548 31.0719 16.9243 31.0719Z" fill="#FFDD61"/>
<path d="M17.9508 29.8601C17.9508 30.4283 17.4887 30.8866 16.9243 30.8866C16.3561 30.8866 15.8978 30.4245 15.8978 29.8601C15.8982 29.71 15.9315 29.5618 15.9952 29.4259C16.0589 29.29 16.1516 29.1696 16.2667 29.0733C16.3818 28.977 16.5165 28.9069 16.6615 28.8681C16.8066 28.8294 16.9583 28.8227 17.1061 28.8487C17.5948 28.9434 17.947 29.3677 17.9508 29.8601C17.9508 29.9662 18.0341 30.0495 18.1402 30.0495C18.2463 30.0495 18.3296 29.9662 18.3296 29.8601C18.3263 29.5733 18.2367 29.2942 18.0726 29.0591C17.9084 28.824 17.6772 28.6438 17.4091 28.5419C16.6819 28.2768 15.8788 28.6518 15.6099 29.379C15.3448 30.1063 15.7198 30.9093 16.447 31.1783C17.1743 31.4472 17.9773 31.0684 18.2463 30.3411C18.3031 30.1858 18.3296 30.0268 18.3296 29.8601C18.3296 29.754 18.2463 29.6707 18.1402 29.6707C18.0341 29.6707 17.9508 29.7578 17.9508 29.8601Z" fill="#414247"/>
<path d="M29.303 14.9091C28.7732 15.0997 28.3112 15.442 27.9745 15.8932C27.6377 16.3445 27.4411 16.8848 27.4091 17.4469C27.4091 17.6363 27.6477 17.8257 27.7878 17.9204C27.856 17.9621 28.1894 18.1439 28.1969 17.9545C28.2538 16.8825 28.9431 15.9469 29.9507 15.5719C30.1288 15.5075 29.8939 15.2424 29.8295 15.1931C29.7424 15.1022 29.6401 15.0303 29.5265 14.9772C29.4558 14.9283 29.3687 14.9093 29.2841 14.9242L29.303 14.9091ZM32.1969 16.8333C32.1601 17.4628 32.3662 18.0824 32.7727 18.5644C33.178 19.0947 33.6856 19.5416 34.2689 19.8712C34.3371 19.9091 34.6704 20.1212 34.7424 20.0265C34.8144 19.9318 34.4053 19.7045 34.3636 19.6894L34.2878 19.6439C34.1742 19.5757 34.3371 19.6818 34.2878 19.6439L34.2159 19.5947C34.1553 19.553 34.2651 19.6325 34.2159 19.5947C34.1288 19.5341 34.0416 19.4621 33.9659 19.3863C33.7916 19.2235 33.6401 19.0416 33.5075 18.8447C33.1712 18.4227 33.0038 17.8908 33.0378 17.3522C33.0378 17.2197 32.7651 17.0681 32.6591 17.0151C32.6288 16.9962 32.2007 16.7727 32.1894 16.856L32.1969 16.8333ZM35.1515 22.8598C35.1477 23.4507 35.0038 24.0303 34.7386 24.5568C34.6288 24.7841 34.4848 24.9886 34.3106 25.1704C34.2651 25.2159 34.2159 25.2575 34.1628 25.2954C34.2235 25.2538 34.0378 25.3636 34.0871 25.3371C34.1363 25.3106 34.0227 25.3636 34.0227 25.3598C34.0227 25.356 34.0833 25.3598 34.0227 25.3598C33.9621 25.3598 33.981 25.3598 34.0227 25.3598H33.8939C33.7007 25.3598 33.3901 25.4583 33.3409 25.6704C33.2916 25.8825 33.5757 25.9659 33.7197 25.9772C34.4886 25.9772 35.1856 25.5341 35.5113 24.8409C35.8788 24.1856 36.0681 23.4431 36.0606 22.6894C36.0606 22.6022 35.9507 22.5303 35.8863 22.5C35.7727 22.4583 35.6515 22.4507 35.5341 22.4735C35.3333 22.5113 35.106 22.6212 35.106 22.8522L35.1515 22.8598ZM27.9962 20.7083C27.481 22.0265 28.3409 23.4583 29.428 24.1894C29.5492 24.2689 29.7765 24.3522 29.8068 24.1288C29.7957 24.0136 29.7594 23.9024 29.7005 23.8029C29.6416 23.7034 29.5615 23.6181 29.4659 23.553C29.2841 23.4394 29.1212 23.303 28.9772 23.1439C29.053 23.2197 28.9318 23.0871 28.9204 23.0719C28.9091 23.0568 28.803 22.9053 28.8636 22.9962C28.8295 22.9469 28.7992 22.8977 28.7689 22.8447C28.7386 22.7916 28.7424 22.7954 28.7272 22.7689C28.7462 22.8068 28.7462 22.803 28.7272 22.7689C28.5277 22.3276 28.51 21.8254 28.678 21.3712C28.7538 21.1818 28.5757 20.9204 28.4431 20.7992C28.3106 20.678 28.0871 20.5075 28.0075 20.7083H27.9962ZM33.678 29.5492C33.7007 29.5075 33.7424 29.4734 33.7878 29.4583C33.8181 29.4507 33.8522 29.4507 33.8825 29.4583H33.9735C33.9128 29.4583 33.9394 29.4583 33.9735 29.4583H33.9128C33.7272 29.4242 34 29.4583 33.8447 29.4583C33.8447 29.4583 33.9583 29.5 33.8863 29.4583L33.9659 29.4924C34.0113 29.5113 34.0568 29.5378 34.0984 29.5644C34.2045 29.625 34.303 29.7007 34.3901 29.7841C34.7613 30.1515 34.9583 30.6628 34.928 31.1856C34.928 31.231 35.0303 31.2689 35.053 31.2803C35.1591 31.3219 35.2689 31.3522 35.3825 31.375C35.4318 31.375 35.875 31.4697 35.8788 31.375C35.9128 30.7007 35.5909 30.0606 35.0303 29.6856C34.6426 29.4485 34.2086 29.2973 33.7575 29.2424C33.5341 29.2083 33.3068 29.1969 33.0795 29.2083C32.9318 29.1969 32.7841 29.2651 32.7007 29.3863C32.6591 29.4621 33.1136 29.5681 33.1553 29.5757C33.2689 29.6022 33.3825 29.6136 33.5 29.6136C33.5416 29.6136 33.6288 29.6136 33.6515 29.5757L33.678 29.5492ZM30.1401 34.0681C30.2803 34.0719 30.4166 34.0871 30.553 34.1136C30.6439 34.1136 30.5038 34.1136 30.553 34.1136L30.6439 34.1363L30.8447 34.2007C30.9091 34.2235 30.9735 34.2462 31.0341 34.2765H31.0795L31.1212 34.2992C31.2462 34.3636 31.3636 34.4356 31.4772 34.5151L31.553 34.5719C31.6288 34.6325 31.5795 34.5719 31.553 34.5719C31.5265 34.5719 31.6856 34.6894 31.7083 34.7121C31.803 34.803 31.8901 34.9015 31.9735 35.0038L31.9924 35.0265C32.0075 35.053 32.0265 35.0795 32.0454 35.1022L32.1515 35.2803C32.1818 35.3333 32.2121 35.3901 32.2386 35.4469C32.2651 35.5038 32.2083 35.3598 32.2386 35.4772L32.2765 35.5833C32.356 35.8333 32.5984 35.9886 32.856 35.9621C32.9055 35.9569 32.9535 35.942 32.9973 35.9182C33.041 35.8945 33.0796 35.8623 33.1109 35.8236C33.1423 35.7849 33.1656 35.7404 33.1797 35.6927C33.1938 35.645 33.1984 35.5949 33.1931 35.5454C33.1894 35.5189 33.1856 35.4886 33.1742 35.4621C32.9347 34.8259 32.516 34.2728 31.9689 33.8694C31.4217 33.4661 30.7694 33.2299 30.0909 33.1894C30.0421 33.1797 29.9919 33.1798 29.9432 33.1896C29.8944 33.1994 29.8481 33.2188 29.8069 33.2466C29.7657 33.2745 29.7304 33.3102 29.7031 33.3517C29.6758 33.3932 29.6569 33.4398 29.6477 33.4886C29.6439 33.5151 29.6401 33.5416 29.6401 33.5681C29.6628 33.8219 29.8636 34.0265 30.1174 34.0492L30.1401 34.0681ZM29.5833 27.8977C28.9431 28.0568 28.3788 28.428 27.981 28.9545C27.635 29.4198 27.4671 29.9935 27.5075 30.5719C27.5075 30.6477 27.6288 30.6931 27.6856 30.7045C27.7992 30.731 27.9204 30.731 28.0341 30.7045C28.1894 30.6666 28.4735 30.5681 28.4583 30.3636C28.428 29.9015 28.553 29.4469 28.8144 29.0644C28.8901 28.9697 28.9697 28.8788 29.0568 28.7916V28.7727C29.0757 28.7538 29.0947 28.7348 29.1174 28.7197L29.2689 28.5909L29.3371 28.5454C29.375 28.5151 29.2765 28.5795 29.3371 28.5454L29.4924 28.4583L29.5681 28.4204C29.4583 28.4583 29.5681 28.4204 29.5681 28.4204C29.5984 28.4091 29.6325 28.3977 29.6628 28.3863C29.7575 28.3522 29.5606 28.4128 29.6628 28.3863C29.7651 28.3598 30.1288 28.2462 30.0833 28.0454C30.0378 27.8447 29.6818 27.8863 29.5568 27.9204L29.5833 27.8977Z" fill="white"/>
</svg>
