<svg width="50" height="50" viewBox="0 0 50 50" fill="none" xmlns="http://www.w3.org/2000/svg">
<path d="M39.9167 18.0303C39.9129 17.1401 39.7349 16.2613 39.394 15.4393C39.0455 14.7159 38.5493 14.0719 37.9432 13.5454C36.8409 12.5568 36.2841 12.3181 34.8523 11.9507C35.6099 11.1931 35.9091 10.3257 36.4887 9.42419C37.4129 9.90147 38.1629 10.659 38.6364 11.5871C39.394 13.1022 39.9167 18.0303 39.9167 18.0303Z" fill="#FFDD61"/>
<path d="M40.284 18.0796C40.2765 17.1933 40.1022 16.3145 39.7727 15.4887C39.4431 14.7728 38.9772 14.1289 38.3977 13.5948C37.9313 13.1221 37.4024 12.7156 36.8257 12.3865C36.2234 12.0834 35.5871 11.8562 34.9318 11.7122L35.1742 12.144C35.8863 11.3865 36.2765 10.4698 36.8143 9.61373L36.3143 9.64403C37.0227 9.99631 37.6249 10.5342 38.053 11.2009C38.4999 11.9887 38.7878 12.8524 38.909 13.7501C39.2007 15.1516 39.3939 16.5683 39.5454 17.9849C39.5795 18.3183 40.303 18.4546 40.284 18.0796C40.1363 16.5304 39.8977 14.9887 39.5795 13.466C39.428 12.519 39.0719 11.6137 38.5416 10.8145C38.0543 10.1478 37.4155 9.6064 36.678 9.23494C36.5454 9.17434 36.2765 9.10616 36.178 9.26525C35.6401 10.1175 35.2462 11.0569 34.5378 11.7918C34.3787 11.9584 34.6363 12.1705 34.7802 12.2236C35.3409 12.3448 35.8825 12.5266 36.4015 12.769C36.9166 13.0531 37.3863 13.4054 37.803 13.8183C38.3636 14.3183 38.8106 14.9281 39.1174 15.6137C39.4015 16.3751 39.5454 17.1819 39.5454 17.9925C39.5606 18.3183 40.2992 18.4622 40.284 18.0796Z" fill="#FFDD61"/>
<path d="M9.09094 39.2156C13.431 29.4364 16.5382 19.1555 18.3409 8.6095C21.6705 9.17389 25.0606 9.2345 28.4394 9.2951L36.5 9.43904C35.9205 10.3406 35.6061 11.208 34.8485 11.9656C36.2803 12.3443 36.8372 12.5716 37.9394 13.5603C38.5455 14.0868 39.0417 14.7307 39.3902 15.4542C39.7273 16.2762 39.9015 17.155 39.9015 18.0451C39.9243 19.8898 39.7652 21.7307 39.4318 23.5413C38.4809 29.4407 37.1061 35.2638 35.3182 40.9656C35.2803 41.1701 35.1705 41.3557 35.0152 41.4921C34.7803 41.6133 34.5076 41.6322 34.2576 41.5413C26.4394 39.9163 18.1819 41.1322 15.1515 40.7534C13.0872 40.4353 11.0606 39.9277 9.09094 39.2383" fill="white"/>
<path d="M20.9053 11.9697C20.0377 17.3304 18.6966 22.6035 16.8977 27.7273C16.8485 27.875 16.8068 28.0682 16.9318 28.1629C16.9849 28.197 17.0455 28.2197 17.1099 28.2235L25.5152 29.4925L26.6137 24.3182C26.9167 24.2955 27.5227 24.269 27.5227 24.269L29.1667 25.6023C29.4012 25.4706 29.5955 25.2777 29.7289 25.0442C29.8623 24.8107 29.9298 24.5454 29.9243 24.2765C29.9243 24.2765 31.0341 24.3409 31.5871 24.3978C32.7967 20.6629 33.419 16.7629 33.4318 12.8372C32.269 13.1099 31.053 12.9432 29.8674 12.7955C26.947 12.4356 20.9053 11.9697 20.9053 11.9697ZM18.4546 30.6364C20.2349 30.572 21.7311 31.9659 21.7955 33.7462C21.8106 34.1364 21.7538 34.5265 21.625 34.8978C21.2008 36.1478 20.0265 37.0379 18.7576 37.3978C17.5947 37.7273 16.2538 37.6402 15.3068 36.8902C12.5947 34.75 15.8258 30.7273 18.4546 30.6364Z" fill="#FFDD61"/>
<path d="M39.5341 14.9925C38.9781 14.0897 38.2371 13.3151 37.3598 12.7197C36.7668 12.3374 36.1211 12.0439 35.4431 11.8485C36 11.1553 36.356 10.3637 36.8219 9.61746C36.9962 9.34474 36.606 9.16671 36.3863 9.16292C33.356 9.10989 30.3257 9.05686 27.2954 9.00004C24.2916 8.99625 21.2954 8.77277 18.3257 8.33337C18.2235 8.33337 18.0075 8.33337 17.981 8.48868C16.5757 16.7008 14.3825 24.7576 11.4242 32.5455C10.5871 34.7538 9.68936 36.9356 8.73103 39.0985C8.67042 39.2311 8.76891 39.3485 8.90527 39.4205C8.91664 39.4281 8.92042 39.4356 8.93179 39.4432C8.94694 39.4508 8.96588 39.4508 8.98103 39.4546C8.98482 39.4546 8.98861 39.4546 8.99239 39.4584C9.02648 39.4697 9.06058 39.4773 9.09467 39.4811C9.10603 39.4811 9.12118 39.4849 9.13254 39.4849L9.12497 39.5076C8.92042 39.4697 9.30679 39.5796 9.36361 39.5985C9.66285 39.7008 9.96209 39.7993 10.2613 39.894C11.1136 40.1591 11.9735 40.394 12.8409 40.5947C14.2954 40.9432 15.7878 41.1175 17.2841 41.1099C21.0341 41.0796 24.7727 40.8258 28.5227 41.0682C29.6591 41.1402 30.7954 41.25 31.9318 41.4053C32.4886 41.4849 33.0454 41.5758 33.6022 41.6781C34.053 41.822 34.5265 41.8788 35 41.8447C35.3219 41.769 35.5719 41.5228 35.6591 41.2046C35.8674 40.6553 36.0113 40.0682 36.178 39.5114C36.5189 38.375 36.8447 37.2387 37.1515 36.1023C38.3911 31.5305 39.3474 26.8866 40.0151 22.197C40.2045 20.9243 40.2992 19.6402 40.2916 18.3561C40.3295 17.1894 40.0682 16.0303 39.5341 14.9925ZM39.553 18.1819C39.5689 19.29 39.5031 20.3978 39.356 21.4963C38.7591 25.9817 37.8734 30.424 36.7045 34.7955C36.4204 35.8864 36.125 36.9735 35.8144 38.0569C35.6704 38.5569 35.5227 39.0531 35.375 39.5493C35.2954 39.8106 35.2159 40.0758 35.1325 40.3372C35.0833 40.5985 35 40.8523 34.8863 41.0947C34.6098 41.5266 33.803 41.1894 33.3712 41.0947C32.8447 41 32.3182 40.9167 31.7878 40.8409C30.7159 40.6932 29.6401 40.5909 28.5606 40.519C24.9545 40.2841 21.3636 40.4622 17.75 40.519C16.1969 40.572 14.6439 40.4281 13.125 40.0985C12.1704 39.8902 11.231 39.625 10.303 39.3409C10.0606 39.25 9.81815 39.1705 9.57194 39.0947C12.8947 31.5527 15.4886 23.7102 17.3182 15.6743C17.8257 13.4356 18.2765 11.1781 18.6666 8.90913C21.5454 9.3258 24.4469 9.54171 27.3522 9.54928C30.2083 9.6061 33.0606 9.65534 35.9128 9.7008C35.4962 10.4281 35.125 11.1743 34.5378 11.7841C34.3788 11.9508 34.6325 12.1629 34.7803 12.2159C35.5303 12.3675 36.25 12.6553 36.8977 13.0606C37.7163 13.6092 38.4032 14.3324 38.9091 15.1781C39.3636 16.1137 39.5871 17.144 39.553 18.1819ZM33.3295 12.6894C31.8144 13.0152 30.2992 12.6894 28.7841 12.5303C27.6477 12.4091 26.5113 12.3031 25.375 12.2008C23.875 12.0644 22.3712 11.9394 20.8712 11.8258C20.8333 11.8106 20.7992 11.8106 20.7803 11.8372C20.7651 11.8485 20.7613 11.8637 20.7613 11.8864C20.3674 14.3144 19.8712 16.7235 19.2841 19.1099C19.2538 19.1213 19.25 19.144 19.2689 19.1705C19.0151 20.2046 18.7462 21.2387 18.4545 22.2652C17.9772 23.947 17.4545 25.6175 16.8825 27.2728C16.75 27.6516 16.5492 28.1175 17.0113 28.3409C17.3371 28.4432 17.678 28.5038 18.0227 28.5152L19.4242 28.7273L25.5871 29.6591C25.6136 29.6591 25.6553 29.6591 25.6591 29.6175L26.3257 26.4773L26.6591 24.9053C26.7727 24.3637 27.106 24.4735 27.553 24.4356C27.6818 24.5266 27.6742 24.5341 27.7348 24.5834L28.2765 25L29.1439 25.6932C29.1856 25.7311 29.2538 25.769 29.3106 25.7311C29.5871 25.5606 29.8068 25.3106 29.9469 25.0152C30.0075 24.8978 30.0416 24.769 30.0568 24.6364C30.0568 24.5 30.0113 24.4735 30.0568 24.447C30.178 24.3788 30.6022 24.4811 30.7386 24.4887L31.6628 24.5606C31.6931 24.5682 31.7235 24.5493 31.7348 24.5228C32.9356 20.7766 33.5606 16.8675 33.5833 12.9319C33.5795 12.8258 33.4507 12.6629 33.3295 12.6894ZM31.6288 23.6743C31.6022 23.822 31.5606 23.9697 31.4962 24.1061C31.3939 24.2387 31.4166 24.2046 31.2538 24.2159C31.053 24.2159 30.8522 24.2008 30.6515 24.1705L29.8485 24.1213C29.8106 24.1137 29.7765 24.1402 29.7689 24.1781V24.1894C29.7613 24.6819 29.5151 25.1364 29.1136 25.4129L27.9015 24.4432C27.7803 24.3144 27.6363 24.2084 27.481 24.1213C27.2159 24.0872 26.9469 24.1023 26.6856 24.1402L26.9356 22.9281C26.9356 22.8978 26.7613 22.8485 26.7613 22.8599L26.4848 24.1781C26.4772 24.1856 26.4659 24.1856 26.4621 24.197L25.8371 27.1553L25.5227 28.6326C25.4848 28.8144 25.4772 29.1402 25.3295 29.2463C25.1818 29.3523 24.7159 29.2273 24.5038 29.1932L18.5341 28.2917L17.7765 28.1781C17.5541 28.1815 17.3327 28.1482 17.1212 28.0796H17.0303C17.0038 27.9773 17.0151 27.8713 17.0606 27.7766C17.0947 27.6591 17.1325 27.5455 17.178 27.4356L17.4394 26.6781C17.6288 26.1099 17.803 25.5379 17.9848 24.966C18.0075 24.9773 18.0303 24.9887 18.0568 24.9925V25C18.1931 25.0303 18.3333 25.0417 18.4697 25.0266C18.5151 25.0228 18.5606 25 18.5909 24.966C18.6048 24.9486 18.615 24.9285 18.6209 24.907C18.6268 24.8855 18.6281 24.863 18.625 24.8409C18.6113 24.7949 18.5817 24.7551 18.5415 24.7288C18.5012 24.7024 18.453 24.6912 18.4053 24.697H18.3522C18.2651 24.697 18.178 24.6856 18.0947 24.6667H18.0795C18.1591 24.4167 18.2424 24.1705 18.3182 23.9205C18.4583 23.4508 18.5985 22.9773 18.731 22.5038C18.7424 22.5076 18.7575 22.5152 18.7689 22.5152L18.7841 22.5076L19.1628 22.5417C19.2121 22.5417 19.2613 22.5341 19.3068 22.5152C19.3333 22.5152 19.3788 22.4773 19.3863 22.447C19.3939 22.4167 19.2803 22.3485 19.2272 22.3485L18.8485 22.3144C18.8257 22.3144 18.803 22.322 18.7803 22.3258C19.0682 21.3031 19.3371 20.2766 19.5909 19.2425C20.3068 19.2993 21.0265 19.3523 21.7424 19.3978C21.8674 19.3978 21.7803 19.2728 21.6969 19.269C21.0038 19.2273 20.3106 19.1743 19.6174 19.1213L19.8106 18.3296C19.9053 17.9243 19.9962 17.519 20.0833 17.1137H20.4772C20.5075 17.1137 20.5378 17.1061 20.5644 17.0909C20.6098 17.0758 20.6553 17.0569 20.6969 17.0341C20.731 17.019 20.7613 16.9963 20.7916 16.9697C20.7916 16.9697 20.8219 16.9394 20.7916 16.9394H20.2348C20.2045 16.9432 20.1742 16.947 20.1477 16.9584C20.1363 16.9622 20.125 16.9697 20.1136 16.9735C20.2841 16.1894 20.4432 15.4016 20.5947 14.6137H21.0568C21.0947 14.6099 21.1363 14.5985 21.1704 14.5796C21.2159 14.5606 21.2575 14.5341 21.2954 14.5076C21.3182 14.5076 21.356 14.4697 21.3636 14.4432C21.3712 14.4167 21.3636 14.4243 21.3295 14.4243H20.7235C20.6894 14.4281 20.6553 14.4394 20.625 14.4546C20.7689 13.6856 20.9091 12.9167 21.0341 12.144C22.5644 12.2576 24.0947 12.3826 25.625 12.519C26.7803 12.6213 27.9356 12.7311 29.0909 12.8561C30.4772 13.0114 31.8825 13.2728 33.2765 13.0341C33.2462 15.4319 32.9962 17.822 32.5227 20.1705C32.2803 21.3523 31.981 22.5228 31.6288 23.6743ZM32.6098 19.6781C32.5985 19.7197 32.5568 19.7463 32.5151 19.7387C30.8788 19.7425 29.2462 19.7159 27.6098 19.6743L27.375 20.7955C27.3636 20.8561 27.1932 20.894 27.1932 20.8334L27.4318 19.697C27.4356 19.6856 27.4469 19.6781 27.4583 19.6667C26.4469 19.6364 25.4394 19.6023 24.428 19.5569C24.4079 19.5569 24.3886 19.5489 24.3744 19.5347C24.3602 19.5205 24.3522 19.5012 24.3522 19.4811C24.3522 19.4394 24.3863 19.4053 24.428 19.4053C27.1212 19.5228 29.8144 19.5834 32.5113 19.5834H32.5151C32.5265 19.5796 32.5378 19.5796 32.5492 19.5834C32.5909 19.5947 32.6212 19.6364 32.6098 19.6781ZM32.2992 34.3069C32.3939 34.3409 32.0644 34.4432 31.9848 34.4129C29.2348 33.4053 26.1325 33.6591 23.25 33.6288C23.0113 33.6288 23.3333 33.5076 23.4242 33.5076C26.3485 33.5493 29.5075 33.2803 32.2992 34.3069ZM30.231 34.8447C30.3371 34.8675 30.4659 35.0682 30.5189 35.0682C28.1174 34.5985 25.6591 34.5985 23.2159 34.5985C23.1174 34.5985 22.9697 34.3713 22.928 34.3713C25.3788 34.3599 27.8257 34.3561 30.231 34.8447ZM28.4091 35.8826C26.5378 35.6553 24.6553 35.5417 22.7727 35.5379H22.7803C22.6818 35.5379 22.3788 35.394 22.6174 35.394C24.5303 35.3978 26.4394 35.5152 28.3371 35.7463C28.4886 35.7652 28.6666 35.9129 28.4091 35.8826Z" fill="#414247"/>
</svg>
