<svg width="80" height="66" viewBox="0 0 80 66" fill="none" xmlns="http://www.w3.org/2000/svg">
<path d="M40.3735 54.9488C40.4144 55.4815 40.6188 55.9852 40.9575 56.402C41.5414 56.9809 42.4524 56.9231 43.2524 56.8304C50.0203 56.0257 56.7414 54.9315 63.4217 53.5536C63.848 53.5015 64.2509 53.3336 64.5896 53.0673C65.1327 52.5404 65.0392 51.6662 64.8991 50.931C62.9078 40.3594 60.6422 29.8457 58.1137 19.3899C58.0495 18.8804 57.8042 18.4115 57.4305 18.0583C56.6246 17.4794 51.7721 18.811 51.7721 18.811C51.7721 18.811 40.2217 20.6115 36.6597 22.3194C33.8334 23.6741 35.813 30.2915 36.3677 32.891C37.3312 37.4067 38.067 41.9746 38.8728 46.5252C39.375 49.3331 39.8772 52.141 40.3735 54.9488Z" fill="#FFDD61"/>
<path d="M35.6555 8.14508C29.0102 8.11613 23.5971 13.4367 23.5679 20.0251C23.5609 21.7934 23.9501 23.5411 24.7075 25.1421C25.4649 26.7431 26.5715 28.1572 27.9474 29.2824C23.9358 39.0956 19.9299 48.903 15.9241 58.7046C16.8698 57.7146 18.16 57.1185 19.5328 57.0372C20.1401 57.0719 20.7474 56.9851 21.3197 56.7767C21.6904 56.573 21.9669 56.2347 22.091 55.833C22.2152 55.4313 22.1773 54.9975 21.9854 54.623C23.2117 54.6056 24.2628 53.743 24.5022 52.5503C24.6598 51.6298 24.3445 50.5182 25.0277 49.8756C25.3898 49.5398 25.9854 49.3951 26.1139 48.9203C26.1314 48.5961 26.0847 48.2719 25.9737 47.9651C25.9095 47.2414 26.4525 46.6045 27.1825 46.5409C27.2467 46.5351 27.3168 46.5351 27.381 46.5409C27.889 45.5219 27.0131 44.0224 27.8774 43.2756C28.2219 42.9803 28.7649 42.9109 28.9868 42.523C29.2963 41.9845 28.7708 41.3651 28.7708 40.7167C28.8058 40.1088 29.3372 39.6456 29.9504 39.6803L30.0963 39.6977C30.3416 39.0551 30.5868 38.4124 30.8263 37.7756C31.5795 35.7898 32.3328 33.8098 33.092 31.824C33.9328 32.0151 34.7912 32.1135 35.6555 32.1135C42.3299 32.1135 47.7431 26.7467 47.7431 20.1293C47.7431 13.5119 42.3299 8.14508 35.6555 8.14508Z" fill="white"/>
<path d="M35.5564 7.69522C31.7199 7.71838 28.0936 9.46101 25.6936 12.431C24.4617 13.9791 23.6213 15.7969 23.2424 17.7326C22.8635 19.6683 22.9571 21.6658 23.5155 23.5584C24.2396 25.8973 25.6177 27.9815 27.498 29.5678L27.4045 29.0989C23.3928 38.9063 19.3812 48.7136 15.3812 58.5152C15.1417 59.0942 16.041 59.3547 16.3972 58.9957C17.022 58.3589 17.7987 57.8957 18.6629 57.6584C19.4746 57.4326 20.3272 57.5889 21.1388 57.3747C22.2542 57.1026 22.9374 55.9852 22.6629 54.8794C22.6279 54.7405 22.5812 54.6073 22.5169 54.48L22.0848 55.1226C22.9607 55.1052 23.7899 54.7289 24.3739 54.0863C24.9228 53.4263 25.1972 52.581 25.133 51.73C25.0863 51.2784 25.1564 50.8268 25.3374 50.41C25.5768 50.0163 26.1023 49.9005 26.4118 49.5589C26.6921 49.2405 26.7855 48.8063 26.6688 48.401C26.5695 47.8857 26.4877 46.9884 27.3286 47.0173C27.5622 47.0521 27.7899 46.9421 27.9126 46.7452C28.1053 46.1721 28.1637 45.5584 28.0702 44.9621C28.0177 44.6494 28.0177 44.331 28.0702 44.0184C28.1812 43.6189 28.4731 43.5089 28.8177 43.3236C29.314 43.121 29.6352 42.6405 29.6293 42.1078C29.6293 41.5984 28.8469 40.0121 30.0147 40.1742C30.2483 40.2089 30.4761 40.0989 30.5987 39.8963L33.5943 32.0284L33.0104 32.3005C35.7857 32.8858 38.6787 32.5362 41.231 31.3071C43.7833 30.0781 45.849 28.0398 47.1009 25.5152C49.495 20.4494 48.2104 14.4226 43.9534 10.7521C41.6084 8.77841 38.6324 7.69502 35.5564 7.69522C34.7972 7.69522 35.0834 8.62153 35.7549 8.62732C40.8352 8.70837 45.2731 12.0605 46.7038 16.8947C48.0994 21.7984 46.1374 27.0321 41.8454 29.8342C39.2702 31.4784 36.1345 32.0342 33.1447 31.3742C32.9111 31.3394 32.6834 31.4494 32.5607 31.6463L29.5651 39.52L30.1491 39.2421C29.8132 39.1878 29.4686 39.2318 29.1575 39.3685C28.8464 39.5053 28.5822 39.7289 28.3972 40.0121C28.222 40.3073 28.1578 40.6547 28.2162 40.9963C28.2863 41.4594 28.7242 42.0731 28.298 42.461C28.0177 42.7157 27.6147 42.7736 27.3403 43.04C27.1242 43.2773 26.9841 43.5668 26.9315 43.8794C26.7797 44.6957 27.1651 45.5526 26.8381 46.34L27.422 46.0678C26.587 45.9926 25.8045 46.4615 25.4775 47.2257C25.2848 47.7063 25.4775 48.0363 25.4775 48.511C25.5126 49.1652 24.8293 49.2463 24.4498 49.6689C23.8074 50.3694 23.9885 51.3305 23.9126 52.1931C23.884 52.7205 23.6547 53.2174 23.2711 53.5838C22.8875 53.9502 22.378 54.1587 21.8454 54.1673C21.5885 54.1673 21.3841 54.3699 21.3782 54.6189C21.3782 54.6826 21.3899 54.7463 21.4191 54.81C21.7169 55.4121 21.4658 56.1357 20.8644 56.431C20.8527 56.4368 20.8469 56.4426 20.8352 56.4426C20.1987 56.6915 19.4045 56.5294 18.733 56.651C17.4775 56.8768 16.3213 57.4847 15.422 58.3878L16.4381 58.8684L28.4907 29.4868C28.5607 29.3247 28.5257 29.1336 28.3972 29.0121C26.8488 27.7289 25.6594 26.0723 24.9435 24.2016C24.2276 22.3309 24.0093 20.309 24.3096 18.3305C25.1914 12.7321 30.0615 8.60995 35.7782 8.62732C36.5199 8.62153 36.2337 7.68943 35.5564 7.69522Z" fill="#414247"/>
<path d="M36.8119 12.331C37.2615 11.9547 37.8221 11.7231 38.4119 11.671C38.9316 11.5784 39.4688 11.7231 39.8717 12.0647C40.2104 12.5279 40.3622 13.101 40.298 13.6684C40.3155 14.1952 40.1987 14.7221 39.9652 15.1968C39.7491 15.5789 39.3929 15.8684 38.9725 15.9958C38.8148 16.0421 38.6513 16.0652 38.4878 16.071C38.4644 16.0768 38.4352 16.0768 38.4119 16.071L38.1783 16.0131C37.4265 15.7881 36.7883 15.2897 36.3914 14.6179C35.9476 13.8537 36.1287 12.8926 36.8119 12.331C36.8761 12.2789 36.5666 12.2326 36.5374 12.2268C36.5082 12.221 36.1287 12.1458 36.0411 12.2268C35.679 12.5221 35.4338 12.9273 35.3462 13.3847C35.3053 13.79 35.3929 14.1952 35.609 14.5426C35.851 14.929 36.1691 15.263 36.5444 15.5246C36.9196 15.7862 37.3443 15.9701 37.7929 16.0652C38.7389 16.291 39.9827 16.3258 40.6309 15.4863C40.9695 14.971 41.1331 14.3631 41.098 13.7494C41.1739 13.1126 40.9579 12.4758 40.5141 12.0126C40.2163 11.8042 39.8659 11.6652 39.5039 11.6189C39.0717 11.5437 38.6396 11.5089 38.2017 11.5205C37.425 11.4915 36.6601 11.7289 36.0411 12.1979C35.971 12.2615 36.2863 12.3079 36.3097 12.3137C36.333 12.3194 36.7184 12.4121 36.8119 12.331Z" fill="#414247"/>
<path d="M39.9472 15.3597C38.7793 13.5013 39.2173 10.8786 40.4903 9.17074C41.302 8.09389 42.464 7.32389 43.7779 6.98811C45.156 6.70442 46.5866 6.86653 47.8655 7.45705C50.0786 8.36021 52.8582 10.126 53.2786 12.6676C53.5998 14.6013 53.1969 17.1313 51.848 18.6365C51.5969 18.9202 52.0757 19.0013 52.2567 18.8044C53.3136 17.4902 53.8801 15.8518 53.8742 14.1728C54.0018 13.0366 53.7692 11.8892 53.2085 10.8902C52.6115 9.98591 51.849 9.20044 50.9604 8.57442C49.2085 7.27179 46.7969 6.20074 44.537 6.46126C42.5633 6.70442 40.7939 7.80442 39.7195 9.466C38.6041 11.2492 38.2012 13.7676 39.3749 15.6202C39.5151 15.8344 40.0348 15.5797 39.9005 15.3713L39.9472 15.3597Z" fill="#414247"/>
<path d="M42.8149 52.818C42.8616 53.1364 42.9608 53.4433 43.1185 53.727C43.2763 53.9376 43.4801 54.11 43.7148 54.2314C43.9494 54.3527 44.2087 54.4197 44.4732 54.4275C44.9988 54.4622 60.0586 51.1969 60.0586 51.1969C60.0586 51.1969 61.6178 51.0233 61.9273 50.3864C62.044 50.1027 62.0849 49.7959 62.0557 49.4948C61.9856 48.5164 59.8893 40.1391 59.0776 36.9027C58.955 36.3933 58.7564 35.9069 58.4937 35.4554C58.0207 34.8359 56.5024 35.0617 56.5024 35.0617L42.8791 38.1243C42.8791 38.1243 40.736 38.3675 40.3097 39.0159C40.0878 39.3517 40.3097 40.4227 40.3565 40.7527C40.4499 41.3722 42.5638 51.5327 42.8149 52.818Z" fill="white"/>
<path d="M45.5886 45.4134L46.4236 50.3055C46.4878 50.7166 46.517 51.0408 46.9491 51.2029C47.3813 51.365 48.1521 51.0697 48.6542 50.9539C51.8309 50.2245 55.0367 49.6571 58.2718 49.2518C58.3126 49.2518 58.3418 49.2171 58.336 49.1766C58.336 49.165 58.3302 49.1534 58.3243 49.1418C57.4657 47.3511 56.9113 45.4322 56.6834 43.4624C56.6834 43.2887 56.1345 43.0976 56.1521 43.2539C56.3448 44.9676 56.7827 46.6524 57.4542 48.2445C57.5652 48.4413 57.6586 48.6439 57.7287 48.8523C57.6645 49.055 57.3375 49.0202 57.1448 49.0434L55.7258 49.2402C54.7856 49.3792 53.8396 49.5355 52.9053 49.6976C51.971 49.8597 51.0309 50.045 50.0966 50.2418C49.1623 50.4387 48.2397 50.7108 47.3053 50.8613C46.9842 50.9134 47.0542 50.9887 46.9375 50.6587C46.8791 50.4213 46.8382 50.1839 46.8207 49.9408L46.5929 48.6323L46.0849 45.645C46.0557 45.4713 45.536 45.2918 45.5594 45.4424L45.5886 45.4134Z" fill="#414247"/>
<path d="M58.5522 43.7987L50.377 39.7056C49.9099 39.4682 49.4719 39.3119 49.0632 39.7751C48.368 40.6602 47.7246 41.5842 47.1362 42.5424C46.0442 44.1056 45.034 45.7266 44.1172 47.3998C44.1172 47.4461 44.6019 47.3998 44.6719 47.2956C45.6004 45.5993 46.6223 43.9551 47.7376 42.3687C48.1814 41.7261 48.6252 41.0603 49.0924 40.4119C49.2734 40.0761 49.507 39.7751 49.7931 39.5203L49.3084 39.6477C49.6646 39.7519 50.0033 39.9024 50.3128 40.1051L52.6019 41.2629L58.0267 43.9782C58.1668 44.0477 58.6106 43.8161 58.5639 43.8045L58.5522 43.7987Z" fill="#414247"/>
<path d="M55.3809 42.2583L55.2641 41.2278C55.2641 41.0599 55.2291 40.8862 55.2057 40.7241C55.2019 40.6567 55.1758 40.5924 55.1314 40.5412C55.0871 40.4899 55.0271 40.4545 54.9605 40.4404C54.7795 40.4072 54.5927 40.4273 54.4232 40.4983L53.9269 40.6662L52.9225 41.0136C52.8466 41.0136 52.6831 41.1352 52.759 41.2336C52.8349 41.332 53.0393 41.2857 53.1327 41.2336L53.9853 40.9383L54.4057 40.7936L54.6393 40.7125H54.5926V41.0425L54.6393 41.4825L54.7444 42.3741C54.7444 42.5652 55.3284 42.461 55.3284 42.2467L55.3809 42.2583Z" fill="#414247"/>
<path d="M52.9167 46.8894L52.7941 45.9573C52.7532 45.5173 52.6423 45.083 52.4554 44.6778C52.3606 44.4756 52.2133 44.3021 52.0286 44.175C51.8439 44.0478 51.6285 43.9716 51.4043 43.9541C51.0656 43.9599 50.7503 44.1162 50.5401 44.3767C50.3299 44.6373 50.1956 44.9441 50.1489 45.2741C50.0671 46.0267 50.143 46.7909 50.3766 47.5146" fill="#FFDD61"/>
<path d="M53.0631 46.8707C53.0115 46.274 52.9158 45.6819 52.777 45.0991C52.666 44.6301 52.3565 44.2249 51.9244 43.9991C51.5098 43.8138 51.0251 43.8659 50.6572 44.1322C50.461 44.2898 50.2996 44.4858 50.183 44.7079C50.0665 44.93 49.9973 45.1735 49.9799 45.4233C49.9332 46.1296 50.0207 46.8359 50.2368 47.5133C50.2368 47.6059 50.5463 47.5654 50.5288 47.5133C50.3302 46.8765 50.2426 46.2107 50.2602 45.5449C50.231 44.908 50.5813 44.3175 51.1594 44.0396C51.7901 43.837 52.2923 44.5143 52.4616 45.0238C52.6193 45.6375 52.7244 46.257 52.7711 46.888C52.7711 46.9807 53.0748 46.9459 53.0631 46.888V46.8707Z" fill="#414247"/>
<path d="M53.8803 46.5521L50.2715 47.3337L49.7518 47.4437C49.5942 47.4785 49.5825 47.7042 49.7518 47.6637L53.3664 46.8821L53.8803 46.7721C54.0438 46.7374 54.0496 46.5116 53.8803 46.5521ZM55.6321 21.9758C56.1109 25.0963 56.7124 28.1879 57.4306 31.239C57.4657 31.3895 57.6817 31.4127 57.635 31.239C56.9109 28.2111 56.3153 25.1311 55.8423 22.0395C55.8423 21.9063 55.6029 21.7906 55.6263 21.9758H55.6321ZM27.2409 15.6711C26.6614 16.7431 26.3167 17.9242 26.2291 19.1373C26.1416 20.3505 26.3132 21.5682 26.7328 22.7111C26.8321 22.9658 27.3927 22.8211 27.3168 22.5721C26.4876 20.3316 26.6569 17.8479 27.7956 15.7463C27.9474 15.4685 27.3752 15.4511 27.2584 15.6711H27.2409ZM40.8993 27.6148C39.5095 28.5353 37.9212 29.1316 36.2628 29.3516C36.181 29.3516 36.3912 29.5137 36.4029 29.5195C36.5022 29.5948 36.619 29.6411 36.7416 29.6469C38.4117 29.4153 40.0117 28.8074 41.4131 27.8753C41.4131 27.8753 41.0336 27.5106 40.8993 27.5974V27.6148ZM31.7489 17.5758C34.5168 19.0463 37.3197 20.4474 40.1577 21.7848C40.2861 21.8485 40.6657 21.5821 40.6832 21.5879C37.8569 20.2563 35.0657 18.8611 32.3036 17.4079C32.1577 17.3269 31.8131 17.6279 31.7489 17.5874V17.5758Z" fill="#414247"/>
</svg>
