<svg width="50" height="50" viewBox="0 0 50 50" fill="none" xmlns="http://www.w3.org/2000/svg">
<path d="M7.91223 36.716C12.1909 29.216 13.8626 16.5115 14.1565 7.89404L43.4618 10.0948C41.7252 17.8183 42.2214 30.1289 38.9886 37.3675C38.3512 38.7956 37.4618 40.2918 35.9924 40.8259" fill="white"/>
<path d="M8.2404 36.7691C10.1144 33.4623 11.2938 29.7767 12.1564 26.1024C13.0877 22.0949 13.7404 18.0267 14.0992 13.9282C14.2938 11.8865 14.4312 9.84107 14.4999 7.79183L13.9809 8.17062L36.832 9.89789L43.3206 10.3827L43.1068 10.1214C41.2824 18.2994 42.0114 26.9206 39.5267 34.9737C39.2289 35.9926 38.8435 36.985 38.3816 37.9433C37.8244 39.0494 37.0954 40.1176 35.8893 40.5949C35.4465 40.7653 35.6946 41.2388 36.1297 41.0721C38.103 40.3146 39.0725 38.1933 39.7709 36.3524C40.4676 34.4106 40.9788 32.4081 41.2977 30.3714C42.061 25.9282 42.3358 21.4168 42.7977 16.9358C43.0038 14.6365 43.3396 12.3486 43.8129 10.0873C43.8191 10.0589 43.8195 10.0296 43.8142 10.0011C43.8088 9.97258 43.7979 9.94539 43.7819 9.92109C43.766 9.89679 43.7453 9.87587 43.7211 9.85953C43.697 9.8432 43.6698 9.83178 43.6412 9.82592C43.6335 9.82213 43.6221 9.82213 43.6144 9.82213L20.7824 8.09107L14.3129 7.60244C14.0648 7.56456 13.832 7.73501 13.7938 7.98123C13.6602 11.7918 13.3129 15.5949 12.748 19.3676C12.1983 23.3334 11.294 27.2427 10.0457 31.0494C9.40777 32.995 8.58472 34.876 7.58773 36.6668C7.3549 37.0721 8.06864 37.0456 8.2404 36.7691Z" fill="#414247"/>
<path d="M23.9961 11.6932C26.6603 12.1894 29.3664 12.4432 32.0801 12.4508C32.1679 12.4508 32.2404 12.3788 32.2404 12.2917C32.2404 12.2046 32.1679 12.1326 32.0801 12.1326C29.4007 12.125 26.729 11.8712 24.0954 11.375C23.874 11.3333 23.7442 11.6364 23.9885 11.6818L23.9961 11.6932ZM24.8091 13.5227L27.729 13.9015C28.6946 14.072 29.6717 14.1553 30.6526 14.1591C30.8549 14.1591 30.9847 13.8409 30.7366 13.8523C29.7563 13.8487 28.7781 13.7612 27.8129 13.5909L24.8931 13.2121C24.687 13.1818 24.5648 13.4849 24.8091 13.5227Z" fill="#414247"/>
<path d="M15.8245 30.7691C16.4619 30.9775 17.1184 31.1479 17.7748 31.2919C18.0306 31.3487 19.5497 33.5646 19.5497 33.5646C19.5497 33.5646 20.5535 32.5684 20.6947 31.9207L21.9581 32.1972C24.0573 32.7048 26.1871 33.0873 28.3359 33.3335C28.8435 33.4093 29.3626 33.3828 29.8626 33.2578C29.8626 33.2578 30.7405 30.7464 30.8092 29.4699L34.71 29.8638C34.9886 29.932 35.2825 29.8714 35.5153 29.7048C35.6222 29.5722 35.6909 29.4131 35.7138 29.2464C36.5039 25.8411 36.9771 22.3714 37.1298 18.8828C37.1396 18.8304 37.1378 18.7765 37.1246 18.7249C37.1114 18.6732 37.0872 18.625 37.0535 18.5835C36.9919 18.5342 36.9151 18.5074 36.8359 18.5078C30.729 17.6858 18.5764 15.5987 18.5764 15.5987C18.3626 18.1972 18.0306 20.7881 17.6947 23.3752C17.6031 24.0949 17.0458 26.7843 16.8626 27.4245C16.5344 28.5229 15.8245 30.7691 15.8245 30.7691Z" fill="#FFDD61"/>
<path d="M15.813 30.9395C16.1947 31.0607 16.5763 31.1706 16.958 31.2691C17.2405 31.3069 17.5191 31.3827 17.7825 31.4888C18.0267 31.7085 18.2328 31.9622 18.397 32.2463C18.7481 32.716 19.0878 33.1971 19.4199 33.6782C19.4657 33.7577 19.5649 33.788 19.6489 33.7463C19.6641 33.7388 19.6756 33.7274 19.687 33.716C20.2061 33.2615 20.6031 32.6819 20.8321 32.0342L20.6641 32.1175C22.1908 32.4471 23.6756 32.7918 25.1908 33.0721C25.9046 33.2047 26.6183 33.3221 27.3359 33.413C28.0687 33.5532 28.8168 33.5948 29.5573 33.5304C29.8473 33.485 29.9695 33.4736 30.0649 33.2274C30.187 32.8941 30.2863 32.5494 30.3855 32.2122C30.6832 31.341 30.8779 30.4395 30.9733 29.5229L30.8359 29.6554L33.5076 29.9319C33.9313 29.9736 34.3511 30.0304 34.7748 30.0607C35.0229 30.1024 35.2786 30.0607 35.5038 29.9471C35.6985 29.7994 35.8244 29.5759 35.855 29.3335C35.9771 28.86 36.0725 28.3751 36.1679 27.8979C36.3511 27.0721 36.5038 26.2463 36.6183 25.4054C36.9008 23.6516 37.0954 21.8865 37.2137 20.1024C37.2557 19.6895 37.2748 19.2729 37.2748 18.8562C37.2901 18.6857 37.2214 18.5191 37.0878 18.4092C36.9046 18.3183 36.7023 18.2691 36.4962 18.2691L35.6794 18.1554C31.1336 17.5115 26.5992 16.7577 22.0687 16.0001L18.5649 15.4054C18.5474 15.4002 18.5289 15.3985 18.5107 15.4004C18.4925 15.4024 18.4749 15.4079 18.4589 15.4168C18.4428 15.4256 18.4288 15.4375 18.4175 15.4518C18.4062 15.4662 18.3979 15.4826 18.3931 15.5001C18.3893 15.5115 18.3893 15.5229 18.3893 15.5342C18.1718 18.7615 17.7672 21.9736 17.1718 25.1554C16.7634 27.0153 16.2519 28.8524 15.645 30.6592C15.5878 30.8448 15.8931 31.038 15.9618 30.8372C16.5725 28.9926 17.084 27.1175 17.4886 25.216C18.0802 22.0456 18.4847 18.841 18.6985 15.6251L18.5229 15.7501C21.2824 16.2236 24.0458 16.6857 26.8054 17.1327C29.0611 17.5115 31.2748 17.8675 33.5038 18.2085C34.4809 18.3562 35.4542 18.4963 36.4313 18.6327C36.5305 18.6365 36.626 18.6516 36.7214 18.6706C37.0229 18.7766 36.9542 18.966 36.9389 19.2122C36.9389 19.6403 36.8931 20.0683 36.8626 20.4963C36.8015 21.3183 36.7214 22.1441 36.626 22.9622C36.4046 24.8713 36.0878 26.7653 35.6756 28.6441C35.5763 29.0797 35.5496 29.6895 34.9847 29.7236C34.5382 29.7047 34.0954 29.6554 33.6565 29.5721L30.7824 29.2766C30.7099 29.2766 30.6527 29.3335 30.6489 29.4054C30.5611 30.2766 30.374 31.1327 30.0954 31.9622C30 32.2842 29.897 32.6062 29.7901 32.9282C29.7786 32.9963 29.7519 33.0645 29.7214 33.1289C29.4809 33.1895 29.2328 33.2085 28.9886 33.1895C27.5954 33.1365 26.2137 32.9509 24.8588 32.6365C23.4657 32.3676 22.0802 32.0532 20.6947 31.7501C20.6612 31.7406 20.6255 31.7439 20.5944 31.7594C20.5633 31.7748 20.5391 31.8012 20.5267 31.8335C20.2977 32.4547 19.9122 33.0115 19.4084 33.4433L19.6756 33.4774C19.2939 32.9168 18.9122 32.341 18.4809 31.8259C18.3206 31.5759 18.1221 31.3486 17.8893 31.163C17.6565 31.0645 17.4046 30.9963 17.1527 30.9698C16.7061 30.86 16.2634 30.7312 15.8244 30.591C15.626 30.5229 15.626 30.8789 15.813 30.9395Z" fill="#414247"/>
<path d="M27.3282 17.2538C27.0648 18.5909 26.7557 19.9053 26.4923 21.2614C26.4923 21.3523 26.6603 21.3939 26.6794 21.2992C26.9427 19.9621 27.2519 18.6477 27.5114 17.2954C27.5114 17.2007 27.3435 17.1591 27.3282 17.2538ZM25.9313 23.5341C25.645 25.5417 25.2137 27.5227 24.6297 29.4659C24.5992 29.5682 24.79 29.5871 24.8168 29.4886C25.4007 27.5492 25.832 25.5644 26.1183 23.5606C26.1183 23.4507 25.9427 23.4356 25.9313 23.5341ZM24.1106 31.1932L23.8473 32.4356C23.8473 32.5 24.0038 32.5795 24.019 32.5L24.2862 31.2576C24.2862 31.1932 24.1297 31.1136 24.1106 31.1932Z" fill="#414247"/>
<path d="M25.084 28.7085C25.4733 28.8562 25.8779 28.9547 26.2939 29.0002C26.897 29.1024 27.5039 29.1782 28.1107 29.2502C28.7176 29.3221 29.2558 29.3714 29.813 29.4168C30.0993 29.4585 30.3893 29.4774 30.6794 29.4736C30.8054 29.4736 30.7367 29.3183 30.6374 29.3221C30.3474 29.3259 30.0611 29.307 29.7748 29.2653C29.2214 29.2199 28.668 29.163 28.1184 29.1024C27.5687 29.0418 26.939 28.9585 26.3512 28.8638C25.9352 28.8183 25.5306 28.7199 25.1374 28.5759C25.0306 28.5305 24.9771 28.663 25.084 28.7085ZM21.2596 16.2615C21.2442 16.4713 21.2097 16.6792 21.1565 16.8827C21.1565 16.9244 21.21 16.9585 21.2443 16.9623C21.2901 16.9699 21.3321 16.9433 21.3436 16.8979C21.4008 16.6971 21.4352 16.4888 21.4504 16.2805C21.4504 16.1858 21.2672 16.1706 21.2596 16.2615ZM24.2672 16.7653C24.2519 16.9736 24.2176 17.182 24.1642 17.3827C24.1642 17.4282 24.2176 17.4623 24.2519 17.4623C24.2978 17.4699 24.3397 17.4433 24.355 17.4017C24.4084 17.2009 24.4428 16.9926 24.4581 16.7843C24.4581 16.6896 24.2748 16.6706 24.2672 16.7843V16.7653ZM30.2863 17.7691C30.271 17.9774 30.2367 18.1858 30.1794 18.3865C30.1794 18.432 30.2329 18.4661 30.271 18.4699C30.3168 18.4774 30.3588 18.4509 30.3703 18.4055C30.4237 18.2047 30.4619 17.9964 30.4771 17.788C30.4771 17.6933 30.2939 17.6744 30.2863 17.7691ZM33.2939 18.2729C33.2748 18.4812 33.2405 18.6896 33.1832 18.8903C33.1832 18.9358 33.2367 18.9699 33.271 18.9699C33.313 18.9774 33.3588 18.9509 33.3703 18.9093C33.4275 18.7085 33.4619 18.5002 33.4771 18.2918C33.4771 18.1971 33.2939 18.1782 33.2863 18.2918L33.2939 18.2729ZM21.0764 21.4358L21.271 21.6024C21.2405 21.6593 21.271 21.6706 21.313 21.6289L21.4275 21.5835L21.5993 21.5305C21.7443 21.4888 21.8932 21.4661 22.042 21.4661C22.2825 21.4661 22.5115 21.557 22.6832 21.7236C23.0039 22.0646 23.0649 22.5721 22.8359 22.9812C22.7252 23.1744 22.5687 23.3335 22.3779 23.4471C22.168 23.5494 21.9428 23.6252 21.71 23.663C21.5077 23.7047 21.3397 23.8486 21.271 24.0418C21.1947 24.3259 21.1489 24.6176 21.1298 24.913C21.1069 25.0911 21.4771 25.1555 21.5115 24.9509C21.5229 24.6668 21.5687 24.3865 21.6565 24.1176C21.7481 23.913 22.0382 23.9168 22.2252 23.8676C22.626 23.7577 22.9619 23.4926 23.1603 23.1327C23.5153 22.485 23.271 21.6706 22.6184 21.3183C22.5191 21.2653 22.4084 21.2236 22.2977 21.1971C22.0268 21.1403 21.7443 21.1517 21.4771 21.2199C21.2939 21.2653 20.9046 21.3259 20.8817 21.5532C20.8817 21.6479 21 21.7085 21.0726 21.7199C21.3207 21.7502 21.2748 21.4547 21.0726 21.4282L21.0764 21.4358ZM20.9313 26.6365H20.8894H20.9161L20.8741 26.61L20.9008 26.6327L20.8665 26.5949L20.8894 26.629L20.8626 26.5835C20.8665 26.5949 20.8665 26.61 20.8626 26.6214V26.5759V26.61V26.5646C20.8665 26.5759 20.8665 26.5835 20.8626 26.5949V26.5532V26.5797L20.8817 26.5418V26.5646L20.9123 26.5343C20.8942 26.5475 20.8809 26.5661 20.8741 26.5873C20.8626 26.6062 20.855 26.629 20.855 26.6517C20.8474 26.6744 20.8474 26.6971 20.855 26.7199C20.8588 26.7464 20.8703 26.7691 20.8894 26.788C20.9199 26.8259 20.9619 26.8524 21.0115 26.8638H21.0573C21.0878 26.86 21.1145 26.8524 21.1374 26.8335C21.1565 26.8146 21.1756 26.7956 21.1871 26.7729C21.1871 26.7729 21.1871 26.7388 21.2138 26.7199C21.2405 26.7009 21.2138 26.6933 21.2138 26.682V26.6062C21.2176 26.5873 21.2176 26.5683 21.2138 26.5494C21.2061 26.5229 21.1985 26.4964 21.1871 26.4736C21.1755 26.4475 21.16 26.4233 21.1413 26.4017L21.0916 26.3524L21.0382 26.3183H20.9962C20.9838 26.3145 20.9705 26.3145 20.9581 26.3183H20.8741C20.8512 26.3183 20.8283 26.3259 20.8092 26.3373C20.7901 26.3486 20.771 26.3638 20.7596 26.3827C20.7481 26.4017 20.7367 26.4206 20.7367 26.4433C20.729 26.4661 20.729 26.4888 20.7367 26.5115C20.7443 26.5608 20.771 26.6062 20.813 26.6365L20.855 26.663C20.8855 26.6706 20.9123 26.6706 20.9428 26.663L20.9313 26.6365Z" fill="#414247"/>
<path d="M35.9924 40.8182C34.5114 41.3523 32.458 40.2121 32.7481 38.6743C26.9198 39.5985 19.7977 38.3599 13.6908 36.0871C9.82824 34.6515 7.20229 33.8144 4.39313 30.8561C3.55725 32.9735 4.96565 35.4015 6.90839 36.6212C8.85114 37.8409 11.1985 38.1364 13.4389 38.5834C17.3397 39.3788 21.1183 40.7121 25.042 41.394C28.9656 42.0758 31.8893 42.7879 35.4466 41.0152" fill="#FFDD61"/>
<path d="M35.9694 40.557C34.7671 40.9547 32.8778 40.1328 33.103 38.6631C33.1083 38.6325 33.1075 38.6011 33.1006 38.5709C33.0936 38.5406 33.0808 38.512 33.0627 38.4866C33.0446 38.4613 33.0217 38.4397 32.9952 38.4232C32.9687 38.4067 32.9392 38.3955 32.9083 38.3904C32.8778 38.3859 32.8468 38.3872 32.8167 38.3941C28.7786 39.0191 24.6259 38.6404 20.6488 37.7919C18.5763 37.3487 16.5381 36.7729 14.5419 36.0608C12.8129 35.4434 11.061 34.8297 9.40071 34.0457C7.62879 33.2094 6.02906 32.0534 4.68315 30.6366C4.47704 30.4207 4.10681 30.6782 4.03048 30.8866C3.29765 32.8525 4.3091 34.9699 5.82055 36.2767C7.6259 37.8335 10.1221 38.2654 12.3893 38.701C15.061 39.2161 17.6679 39.9623 20.2938 40.6479C22.8435 41.326 25.4312 41.8487 28.0419 42.2237C30.6564 42.6025 33.1641 42.432 35.5572 41.254C35.9809 41.0457 35.7404 40.5684 35.3167 40.7767C33.2251 41.8032 31.0305 41.9888 28.7404 41.6972C26.3549 41.3866 23.9885 40.9358 21.6564 40.3449C19.1412 39.7123 16.6564 38.9585 14.1221 38.4131C11.8587 37.9244 9.45796 37.682 7.41597 36.5191C5.48086 35.4244 3.90452 33.076 4.74422 30.8373L4.09536 31.0873C5.33119 32.3821 6.77755 33.4616 8.37399 34.2805C9.98468 35.0494 11.6412 35.7237 13.3358 36.2994C17.3511 37.826 21.561 38.7919 25.8435 39.1669C28.1335 39.3638 30.4389 39.2994 32.7137 38.9661L32.4274 38.701C32.1335 40.5949 34.477 41.6138 36.0534 41.0949C36.4351 40.9623 36.4809 40.3828 36.0038 40.5419L35.9694 40.557Z" fill="#FFDD61"/>
</svg>
