<svg width="16" height="16" viewBox="0 0 16 16" fill="none" xmlns="http://www.w3.org/2000/svg">
<path d="M5.33333 3.83334C5.06 3.83334 4.83333 3.60668 4.83333 3.33334V1.33334C4.83333 1.06001 5.06 0.833344 5.33333 0.833344C5.60667 0.833344 5.83333 1.06001 5.83333 1.33334V3.33334C5.83333 3.60668 5.60667 3.83334 5.33333 3.83334Z" fill="#A3ABB3"/>
<path d="M10.6667 3.83334C10.3933 3.83334 10.1667 3.60668 10.1667 3.33334V1.33334C10.1667 1.06001 10.3933 0.833344 10.6667 0.833344C10.94 0.833344 11.1667 1.06001 11.1667 1.33334V3.33334C11.1667 3.60668 10.94 3.83334 10.6667 3.83334Z" fill="#A3ABB3"/>
<path d="M5.66667 9.66667C5.58 9.66667 5.49333 9.64668 5.41333 9.61335C5.32667 9.58001 5.26 9.53333 5.19333 9.47333C5.07333 9.34667 5 9.18 5 9C5 8.91334 5.02 8.82667 5.05333 8.74667C5.08667 8.66667 5.13333 8.59334 5.19333 8.52668C5.26 8.46668 5.32667 8.42 5.41333 8.38666C5.65333 8.28666 5.95333 8.34001 6.14 8.52668C6.26 8.65334 6.33333 8.82667 6.33333 9C6.33333 9.04 6.32667 9.08668 6.32 9.13335C6.31333 9.17335 6.3 9.21334 6.28 9.25334C6.26667 9.29334 6.24667 9.33334 6.22 9.37334C6.2 9.40667 6.16667 9.44 6.14 9.47333C6.01333 9.59333 5.84 9.66667 5.66667 9.66667Z" fill="#A3ABB3"/>
<path d="M8 9.66667C7.91333 9.66667 7.82666 9.64668 7.74666 9.61335C7.66 9.58002 7.59333 9.53334 7.52667 9.47334C7.40667 9.34667 7.33333 9.18001 7.33333 9.00001C7.33333 8.91334 7.35333 8.82667 7.38667 8.74667C7.42 8.66667 7.46667 8.59335 7.52667 8.52668C7.59333 8.46668 7.66 8.42 7.74666 8.38666C7.98666 8.28 8.28666 8.34001 8.47333 8.52668C8.59333 8.65335 8.66667 8.82667 8.66667 9.00001C8.66667 9.04001 8.66 9.08668 8.65333 9.13335C8.64667 9.17335 8.63333 9.21334 8.61333 9.25334C8.6 9.29334 8.58 9.33334 8.55333 9.37334C8.53333 9.40667 8.5 9.44 8.47333 9.47334C8.34666 9.59334 8.17333 9.66667 8 9.66667Z" fill="#A3ABB3"/>
<path d="M10.3333 9.66667C10.2467 9.66667 10.16 9.64668 10.08 9.61335C9.99333 9.58002 9.92667 9.53334 9.86 9.47334C9.83334 9.44 9.80667 9.40667 9.78 9.37334C9.75333 9.33334 9.73334 9.29334 9.72 9.25334C9.7 9.21334 9.68667 9.17335 9.68 9.13335C9.67333 9.08668 9.66667 9.04001 9.66667 9.00001C9.66667 8.82667 9.74 8.65335 9.86 8.52668C9.92667 8.46668 9.99333 8.42 10.08 8.38666C10.3267 8.28 10.62 8.34001 10.8067 8.52668C10.9267 8.65335 11 8.82667 11 9.00001C11 9.04001 10.9933 9.08668 10.9867 9.13335C10.98 9.17335 10.9667 9.21334 10.9467 9.25334C10.9333 9.29334 10.9133 9.33334 10.8867 9.37334C10.8667 9.40667 10.8333 9.44 10.8067 9.47334C10.68 9.59334 10.5067 9.66667 10.3333 9.66667Z" fill="#A3ABB3"/>
<path d="M5.66667 12C5.58 12 5.49333 11.98 5.41333 11.9467C5.33333 11.9134 5.26 11.8667 5.19333 11.8067C5.07333 11.68 5 11.5067 5 11.3333C5 11.2467 5.02 11.16 5.05333 11.08C5.08667 10.9933 5.13333 10.92 5.19333 10.86C5.44 10.6134 5.89333 10.6134 6.14 10.86C6.26 10.9867 6.33333 11.16 6.33333 11.3333C6.33333 11.5067 6.26 11.68 6.14 11.8067C6.01333 11.9267 5.84 12 5.66667 12Z" fill="#A3ABB3"/>
<path d="M8 12C7.82667 12 7.65333 11.9267 7.52667 11.8067C7.40667 11.68 7.33333 11.5067 7.33333 11.3333C7.33333 11.2467 7.35333 11.16 7.38667 11.08C7.42 10.9933 7.46667 10.92 7.52667 10.86C7.77333 10.6134 8.22666 10.6134 8.47333 10.86C8.53333 10.92 8.58 10.9933 8.61333 11.08C8.64666 11.16 8.66667 11.2467 8.66667 11.3333C8.66667 11.5067 8.59333 11.68 8.47333 11.8067C8.34666 11.9267 8.17333 12 8 12Z" fill="#A3ABB3"/>
<path d="M10.3333 12C10.16 12 9.98667 11.9267 9.86 11.8067C9.8 11.7467 9.75334 11.6734 9.72 11.5867C9.68667 11.5067 9.66667 11.42 9.66667 11.3334C9.66667 11.2467 9.68667 11.16 9.72 11.08C9.75334 10.9934 9.8 10.92 9.86 10.86C10.0133 10.7067 10.2467 10.6334 10.46 10.68C10.5067 10.6867 10.5467 10.7 10.5867 10.72C10.6267 10.7334 10.6667 10.7534 10.7067 10.78C10.74 10.8 10.7733 10.8334 10.8067 10.86C10.9267 10.9867 11 11.16 11 11.3334C11 11.5067 10.9267 11.68 10.8067 11.8067C10.68 11.9267 10.5067 12 10.3333 12Z" fill="#A3ABB3"/>
<path d="M13.6667 6.55997H2.33333C2.06 6.55997 1.83333 6.3333 1.83333 6.05997C1.83333 5.78663 2.06 5.55997 2.33333 5.55997H13.6667C13.94 5.55997 14.1667 5.78663 14.1667 6.05997C14.1667 6.3333 13.94 6.55997 13.6667 6.55997Z" fill="#A3ABB3"/>
<path d="M10.6667 15.1667H5.33333C2.9 15.1667 1.5 13.7667 1.5 11.3333V5.66668C1.5 3.23334 2.9 1.83334 5.33333 1.83334H10.6667C13.1 1.83334 14.5 3.23334 14.5 5.66668V11.3333C14.5 13.7667 13.1 15.1667 10.6667 15.1667ZM5.33333 2.83334C3.42667 2.83334 2.5 3.76001 2.5 5.66668V11.3333C2.5 13.24 3.42667 14.1667 5.33333 14.1667H10.6667C12.5733 14.1667 13.5 13.24 13.5 11.3333V5.66668C13.5 3.76001 12.5733 2.83334 10.6667 2.83334H5.33333Z" fill="#A3ABB3"/>
</svg>
