<svg width="20" height="20" viewBox="0 0 20 20" fill="none" xmlns="http://www.w3.org/2000/svg">
<path d="M5.63315 18.3337H14.3665C16.6665 18.3337 17.5831 16.9253 17.6915 15.2087L18.1248 8.32533C18.2415 6.52533 16.8081 5.00033 14.9998 5.00033C14.4915 5.00033 14.0248 4.70866 13.7915 4.25866L13.1915 3.05033C12.8081 2.29199 11.8081 1.66699 10.9581 1.66699H9.04981C8.19148 1.66699 7.19148 2.29199 6.80815 3.05033L6.20815 4.25866C5.97481 4.70866 5.50815 5.00033 4.99981 5.00033C3.19148 5.00033 1.75815 6.52533 1.87481 8.32533L2.30815 15.2087C2.40815 16.9253 3.33315 18.3337 5.63315 18.3337Z" stroke="#161616" stroke-width="1.5" stroke-linecap="round" stroke-linejoin="round"/>
<path d="M8.75 6.66699H11.25" stroke="#161616" stroke-width="1.5" stroke-linecap="round" stroke-linejoin="round"/>
<path d="M9.99984 14.9997C11.4915 14.9997 12.7082 13.783 12.7082 12.2913C12.7082 10.7997 11.4915 9.58301 9.99984 9.58301C8.50817 9.58301 7.2915 10.7997 7.2915 12.2913C7.2915 13.783 8.50817 14.9997 9.99984 14.9997Z" stroke="#161616" stroke-width="1.5" stroke-linecap="round" stroke-linejoin="round"/>
</svg>
