<svg width="22" height="22" viewBox="0 0 22 22" fill="none" xmlns="http://www.w3.org/2000/svg">
<path d="M11 8.25016V1.8335L9.16663 3.66683" stroke="#161616" stroke-width="1.5" stroke-linecap="round" stroke-linejoin="round"/>
<path d="M11 1.8335L12.8333 3.66683" stroke="#161616" stroke-width="1.5" stroke-linecap="round" stroke-linejoin="round"/>
<path d="M1.81494 11.9165H5.85744C6.20577 11.9165 6.51744 12.109 6.67328 12.4207L7.74577 14.5657C8.05744 15.189 8.68994 15.5832 9.38661 15.5832H12.6224C13.3191 15.5832 13.9516 15.189 14.2633 14.5657L15.3358 12.4207C15.4916 12.109 15.8124 11.9165 16.1516 11.9165H20.1483" stroke="#161616" stroke-width="1.5" stroke-linecap="round" stroke-linejoin="round"/>
<path d="M6.41671 4.70264C3.17171 5.1793 1.83337 7.08597 1.83337 11.0001V13.7501C1.83337 18.3335 3.66671 20.1668 8.25004 20.1668H13.75C18.3334 20.1668 20.1667 18.3335 20.1667 13.7501V11.0001C20.1667 7.08597 18.8284 5.1793 15.5834 4.70264" stroke="#161616" stroke-width="1.5" stroke-linecap="round" stroke-linejoin="round"/>
</svg>
