<svg width="20" height="20" viewBox="0 0 20 20" fill="none" xmlns="http://www.w3.org/2000/svg">
<path d="M10.0083 18.95C9.48331 18.95 8.96664 18.775 8.55831 18.425L7.24164 17.3C7.10831 17.1833 6.77498 17.0667 6.59998 17.0667H5.14164C3.90831 17.0667 2.90831 16.0667 2.90831 14.8333V13.4083C2.90831 13.2333 2.79164 12.9 2.68331 12.775L1.54998 11.4417C0.866642 10.6333 0.866642 9.36666 1.54998 8.55L2.68331 7.21666C2.79164 7.09166 2.90831 6.75833 2.90831 6.58333V5.16666C2.90831 3.93333 3.90831 2.93333 5.14164 2.93333H6.58331C6.75831 2.93333 7.08331 2.80833 7.22498 2.69166L8.54164 1.56666C9.35831 0.874996 10.6333 0.874996 11.45 1.56666L12.7666 2.69166C12.9 2.80833 13.2416 2.925 13.4166 2.925H14.8333C16.0666 2.925 17.0666 3.925 17.0666 5.15833V6.575C17.0666 6.75 17.1916 7.075 17.3083 7.21666L18.4333 8.53333C19.1333 9.35833 19.125 10.6333 18.4333 11.4417L17.3083 12.7583C17.1916 12.9 17.075 13.225 17.075 13.4V14.8167C17.075 16.05 16.075 17.05 14.8416 17.05H13.425C13.25 17.05 12.925 17.175 12.775 17.2917L11.4583 18.4167C11.05 18.775 10.525 18.95 10.0083 18.95ZM5.14164 4.18333C4.59998 4.18333 4.15831 4.625 4.15831 5.16666V6.58333C4.15831 7.05833 3.94164 7.65833 3.63331 8.025L2.49998 9.35833C2.21664 9.7 2.21664 10.3 2.49998 10.6333L3.62498 11.9583C3.92498 12.3 4.14998 12.925 4.14998 13.4V14.825C4.14998 15.3667 4.59164 15.8083 5.13331 15.8083H6.58331C7.04998 15.8083 7.66664 16.0333 8.03331 16.3417L9.35831 17.475C9.69998 17.7667 10.3 17.7667 10.6416 17.475L11.9583 16.35C12.3333 16.0333 12.9416 15.8167 13.4083 15.8167H14.825C15.3666 15.8167 15.8083 15.375 15.8083 14.8333V13.4167C15.8083 12.95 16.0333 12.3417 16.3416 11.9667L17.475 10.6417C17.7666 10.3 17.7666 9.7 17.475 9.35833L16.35 8.04166C16.0333 7.66666 15.8166 7.05833 15.8166 6.59166V5.16666C15.8166 4.625 15.375 4.18333 14.8333 4.18333H13.4166C12.9416 4.18333 12.325 3.95833 11.9583 3.65L10.6333 2.51666C10.2916 2.225 9.69998 2.225 9.34998 2.51666L8.04164 3.65C7.66664 3.95833 7.05831 4.18333 6.58331 4.18333H5.14164Z" fill="#3CA4E7"/>
<path d="M9.99996 14.0583C9.54163 14.0583 9.16663 13.6833 9.16663 13.225C9.16663 12.7667 9.53329 12.3917 9.99996 12.3917C10.4583 12.3917 10.8333 12.7667 10.8333 13.225C10.8333 13.6833 10.4666 14.0583 9.99996 14.0583Z" fill="#3CA4E7"/>
<path d="M10 11.4333C9.65833 11.4333 9.375 11.15 9.375 10.8083V6.77499C9.375 6.43333 9.65833 6.14999 10 6.14999C10.3417 6.14999 10.625 6.43333 10.625 6.77499V10.8C10.625 11.15 10.35 11.4333 10 11.4333Z" fill="#3CA4E7"/>
</svg>
