<svg width="18" height="18" viewBox="0 0 18 18" fill="none" xmlns="http://www.w3.org/2000/svg">
<path d="M9.0075 17.055C8.535 17.055 8.07 16.8975 7.7025 16.5825L6.5175 15.57C6.3975 15.465 6.0975 15.36 5.94 15.36H4.6275C3.5175 15.36 2.6175 14.46 2.6175 13.35V12.0675C2.6175 11.91 2.5125 11.61 2.415 11.4975L1.395 10.2975C0.78 9.57 0.78 8.43 1.395 7.695L2.415 6.495C2.5125 6.3825 2.6175 6.0825 2.6175 5.925V4.65C2.6175 3.54 3.5175 2.64 4.6275 2.64H5.925C6.0825 2.64 6.375 2.5275 6.5025 2.4225L7.6875 1.41C8.4225 0.787498 9.57 0.787498 10.305 1.41L11.49 2.4225C11.61 2.5275 11.9175 2.6325 12.075 2.6325H13.35C14.46 2.6325 15.36 3.5325 15.36 4.6425V5.9175C15.36 6.075 15.4725 6.3675 15.5775 6.495L16.59 7.68C17.22 8.4225 17.2125 9.57 16.59 10.2975L15.5775 11.4825C15.4725 11.61 15.3675 11.9025 15.3675 12.06V13.335C15.3675 14.445 14.4675 15.345 13.3575 15.345H12.0825C11.925 15.345 11.6325 15.4575 11.4975 15.5625L10.3125 16.575C9.945 16.8975 9.4725 17.055 9.0075 17.055ZM4.6275 3.765C4.14 3.765 3.7425 4.1625 3.7425 4.65V5.925C3.7425 6.3525 3.5475 6.8925 3.27 7.2225L2.25 8.4225C1.995 8.73 1.995 9.27 2.25 9.57L3.2625 10.7625C3.5325 11.07 3.735 11.6325 3.735 12.06V13.3425C3.735 13.83 4.1325 14.2275 4.62 14.2275H5.925C6.345 14.2275 6.9 14.43 7.23 14.7075L8.4225 15.7275C8.73 15.99 9.27 15.99 9.5775 15.7275L10.7625 14.715C11.1 14.43 11.6475 14.235 12.0675 14.235H13.3425C13.83 14.235 14.2275 13.8375 14.2275 13.35V12.075C14.2275 11.655 14.43 11.1075 14.7075 10.77L15.7275 9.5775C15.99 9.27 15.99 8.73 15.7275 8.4225L14.715 7.2375C14.43 6.9 14.235 6.3525 14.235 5.9325V4.65C14.235 4.1625 13.8375 3.765 13.35 3.765H12.075C11.6475 3.765 11.0925 3.5625 10.7625 3.285L9.57 2.265C9.2625 2.0025 8.73 2.0025 8.415 2.265L7.2375 3.285C6.9 3.5625 6.3525 3.765 5.925 3.765H4.6275Z" fill="#292D32"/>
<path d="M9 12.6525C8.5875 12.6525 8.25 12.315 8.25 11.9025C8.25 11.49 8.58 11.1525 9 11.1525C9.4125 11.1525 9.75 11.49 9.75 11.9025C9.75 12.315 9.42 12.6525 9 12.6525Z" fill="#292D32"/>
<path d="M9 10.29C8.6925 10.29 8.4375 10.035 8.4375 9.7275V6.0975C8.4375 5.79 8.6925 5.535 9 5.535C9.3075 5.535 9.5625 5.79 9.5625 6.0975V9.72C9.5625 10.035 9.315 10.29 9 10.29Z" fill="#292D32"/>
</svg>
