<svg width="18" height="18" viewBox="0 0 18 18" fill="none" xmlns="http://www.w3.org/2000/svg">
<path d="M14.8425 11.1975C13.2975 12.735 11.085 13.2075 9.1425 12.6L5.61 16.125C5.355 16.3875 4.8525 16.545 4.4925 16.4925L2.8575 16.2675C2.3175 16.1925 1.815 15.6825 1.7325 15.1425L1.5075 13.5075C1.455 13.1475 1.6275 12.645 1.875 12.39L5.4 8.865C4.8 6.915 5.265 4.7025 6.81 3.165C9.0225 0.952498 12.615 0.952498 14.835 3.165C17.055 5.3775 17.055 8.985 14.8425 11.1975Z" stroke="#161616" stroke-miterlimit="10" stroke-linecap="round" stroke-linejoin="round"/>
<path d="M5.1675 13.1175L6.8925 14.8425" stroke="#161616" stroke-miterlimit="10" stroke-linecap="round" stroke-linejoin="round"/>
<path d="M10.875 8.25C11.4963 8.25 12 7.74632 12 7.125C12 6.50368 11.4963 6 10.875 6C10.2537 6 9.75 6.50368 9.75 7.125C9.75 7.74632 10.2537 8.25 10.875 8.25Z" stroke="#161616" stroke-linecap="round" stroke-linejoin="round"/>
</svg>
