<svg width="109" height="19" viewBox="0 0 109 19" fill="none" xmlns="http://www.w3.org/2000/svg">
<path d="M0 18.8538H3.54502V10.5231L10.1919 18.8538H14.3278L6.94232 9.5L13.8846 0.438461H9.74879L3.54502 8.62308V0.438461H0V18.8538Z" fill="#161616"/>
<path d="M15.6583 18.8538H19.0556V11.6923C19.0556 9.93846 20.2077 8.76923 21.8621 8.76923C22.2166 8.76923 22.512 8.82769 22.7188 8.85692L23.0438 8.91538V5.40769L22.7483 5.34923C22.5415 5.32 22.3348 5.26154 22.0098 5.26154C20.9758 5.26154 20.1782 5.64154 19.6169 6.08C19.2919 6.31385 18.9965 6.57692 18.7602 6.86923L18.1694 5.40769H15.6583V18.8538Z" fill="#161616"/>
<path d="M25.2652 18.8538H28.6625V5.40769H25.2652V18.8538ZM27.0377 3.8C28.0716 3.8 28.9579 2.92308 28.9579 1.9C28.9579 0.876924 28.0716 0 27.0377 0C26.0037 0 25.1175 0.876924 25.1175 1.9C25.1175 2.92308 26.0037 3.8 27.0377 3.8Z" fill="#161616"/>
<path d="M31.162 14.6154C31.4279 17.2754 33.2299 19 36.7749 19C39.8473 19 41.797 17.1 41.797 14.9077C41.797 10.1138 34.8547 11.2246 34.8547 9.35385C34.8547 8.62308 35.4455 8.03846 36.4795 8.03846C37.5135 8.03846 38.252 8.76923 38.3997 9.35385H41.6493C41.3244 7.01538 39.6109 5.26154 36.3318 5.26154C33.3776 5.26154 31.4574 7.16154 31.4574 9.35385C31.4574 14.0015 38.3997 12.8615 38.3997 14.7615C38.3997 15.4923 37.6612 16.2231 36.4795 16.2231C35.2978 16.2231 34.5593 15.5215 34.4116 14.6154H31.162Z" fill="#161616"/>
<path d="M44.3058 18.8538H47.7031V11.4C47.7031 9.64615 48.8552 8.47692 50.5096 8.47692C52.1639 8.47692 53.316 9.64615 53.316 11.4V18.8538H56.7133V10.9615C56.7133 7.45385 54.4977 5.26154 51.5435 5.26154C50.2141 5.26154 49.2393 5.64154 48.6189 5.99231C48.2644 6.19692 47.969 6.46 47.7031 6.72308V0.438461H44.3058V18.8538Z" fill="#161616"/>
<path d="M68.2462 18.8538H70.7572V10.5231C70.7572 7.48308 68.512 5.26154 65.4397 5.26154C62.0424 5.26154 60.004 7.33692 59.679 9.79231H63.0764C63.1354 9.52923 63.2536 9.26615 63.4309 9.06154C63.7558 8.71077 64.2285 8.33077 65.1443 8.33077C66.4737 8.33077 67.3599 9.17846 67.3599 10.6692C61.1561 10.6692 59.2359 12.54 59.2359 15.2C59.2359 17.4215 60.8607 19 63.8149 19C64.9966 19 65.9419 18.6492 66.6214 18.2692C67.0054 18.0646 67.3304 17.8015 67.6553 17.5385L68.2462 18.8538ZM67.3599 13.5923C67.3599 15.2292 66.1782 16.3692 64.4057 16.3692C63.3718 16.3692 62.6332 15.6385 62.6332 14.9077C62.6332 13.7385 63.3718 13.0077 67.3599 13.0077V13.5923Z" fill="#161616"/>
<path d="M73.2567 17.1C73.2567 18.1231 74.143 19 75.1769 19C76.2109 19 77.0972 18.1231 77.0972 17.1C77.0972 16.0769 76.2109 15.2 75.1769 15.2C74.143 15.2 73.2567 16.0769 73.2567 17.1Z" fill="#161616"/>
<path d="M80.7957 14.1769C80.7957 17.1 82.6863 19 85.3746 19C85.8178 19 86.2018 18.9415 86.5268 18.8538C86.704 18.8246 86.8517 18.7662 86.9994 18.7077V15.7846L86.7631 15.8723C86.6154 15.9015 86.4381 15.9308 86.1132 15.9308C84.9315 15.9308 84.193 15.2 84.193 14.0308V8.47692H87.1471V5.40769H84.193V2.19231H81.2388V4.09231C81.2388 5.17385 80.707 5.7 79.614 5.7H78.7277V8.47692H80.7957V14.1769Z" fill="#161616"/>
<path d="M89.9455 18.8538H93.3428V11.1077C93.3428 9.47077 94.3768 8.47692 95.5585 8.47692C96.7402 8.47692 97.7741 9.47077 97.7741 11.1077V18.8538H101.171V11.1077C101.171 9.47077 102.205 8.47692 103.387 8.47692C104.569 8.47692 105.603 9.47077 105.603 11.1077V18.8538H109V10.8154C109 7.16154 107.08 5.26154 104.126 5.26154C102.944 5.26154 101.94 5.7 101.231 6.13846C100.817 6.40154 100.462 6.69385 100.137 7.01538C99.9307 6.69385 99.6353 6.40154 99.2808 6.13846C98.6604 5.7 97.6855 5.26154 96.297 5.26154C95.3222 5.26154 94.5245 5.64154 93.9632 5.99231C93.6383 6.19692 93.3133 6.46 93.0474 6.72308L92.4566 5.40769H89.9455V18.8538Z" fill="#161616"/>
</svg>
