<svg width="80" height="80" viewBox="0 0 80 80" fill="none" xmlns="http://www.w3.org/2000/svg">
<rect width="80" height="80" rx="15" fill="#FFDD61"/>
<path d="M7.19995 45.5142H9.30745V40.6035L13.259 45.5142H15.7177L11.3271 40.0004L15.4543 34.6589H12.9956L9.30745 39.4835V34.6589H7.19995V45.5142Z" fill="#161616"/>
<path d="M16.5087 45.5142H18.5284V41.2927C18.5284 40.2589 19.2134 39.5696 20.1969 39.5696C20.4076 39.5696 20.5832 39.6041 20.7062 39.6213L20.8994 39.6558V37.5881L20.7237 37.5536C20.6008 37.5364 20.4779 37.5019 20.2847 37.5019C19.67 37.5019 19.1958 37.7259 18.8621 37.9844C18.6689 38.1222 18.4933 38.2773 18.3528 38.4496L18.0016 37.5881H16.5087V45.5142Z" fill="#161616"/>
<path d="M22.22 45.5142H24.2397V37.5881H22.22V45.5142ZM23.2737 36.6404C23.8884 36.6404 24.4153 36.1235 24.4153 35.5204C24.4153 34.9173 23.8884 34.4004 23.2737 34.4004C22.659 34.4004 22.1322 34.9173 22.1322 35.5204C22.1322 36.1235 22.659 36.6404 23.2737 36.6404Z" fill="#161616"/>
<path d="M25.7256 43.0158C25.8837 44.5838 26.955 45.6004 29.0625 45.6004C30.889 45.6004 32.0481 44.4804 32.0481 43.1881C32.0481 40.3622 27.9209 41.017 27.9209 39.9142C27.9209 39.4835 28.2722 39.1389 28.8868 39.1389C29.5015 39.1389 29.9406 39.5696 30.0284 39.9142H31.9603C31.7671 38.5358 30.7485 37.5019 28.799 37.5019C27.0428 37.5019 25.9012 38.6219 25.9012 39.9142C25.9012 42.6539 30.0284 41.9819 30.0284 43.1019C30.0284 43.5327 29.5893 43.9635 28.8868 43.9635C28.1844 43.9635 27.7453 43.5499 27.6575 43.0158H25.7256Z" fill="#161616"/>
<path d="M33.5395 45.5142H35.5592V41.1204C35.5592 40.0865 36.2442 39.3973 37.2276 39.3973C38.2111 39.3973 38.8961 40.0865 38.8961 41.1204V45.5142H40.9158V40.8619C40.9158 38.7942 39.5986 37.5019 37.8423 37.5019C37.052 37.5019 36.4725 37.7259 36.1036 37.9327C35.8929 38.0533 35.7173 38.2084 35.5592 38.3635V34.6589H33.5395V45.5142Z" fill="#161616"/>
<path d="M47.772 45.5142H49.2648V40.6035C49.2648 38.8115 47.93 37.5019 46.1035 37.5019C44.0839 37.5019 42.8721 38.7253 42.6789 40.1727H44.6986C44.7337 40.0176 44.8039 39.8625 44.9093 39.7419C45.1025 39.5352 45.3835 39.3112 45.9279 39.3112C46.7182 39.3112 47.2451 39.8109 47.2451 40.6896C43.557 40.6896 42.4154 41.7924 42.4154 43.3604C42.4154 44.6699 43.3814 45.6004 45.1376 45.6004C45.8401 45.6004 46.4021 45.3936 46.806 45.1696C47.0344 45.049 47.2276 44.8939 47.4207 44.7389L47.772 45.5142ZM47.2451 42.4127C47.2451 43.3776 46.5426 44.0496 45.4889 44.0496C44.8742 44.0496 44.4351 43.6189 44.4351 43.1881C44.4351 42.4989 44.8742 42.0681 47.2451 42.0681V42.4127Z" fill="#161616"/>
<path d="M50.7507 44.4804C50.7507 45.0835 51.2776 45.6004 51.8923 45.6004C52.507 45.6004 53.0339 45.0835 53.0339 44.4804C53.0339 43.8773 52.507 43.3604 51.8923 43.3604C51.2776 43.3604 50.7507 43.8773 50.7507 44.4804Z" fill="#161616"/>
<path d="M55.2326 42.7573C55.2326 44.4804 56.3566 45.6004 57.9548 45.6004C58.2182 45.6004 58.4465 45.5659 58.6397 45.5142C58.7451 45.497 58.8329 45.4625 58.9207 45.4281V43.705L58.7802 43.7567C58.6924 43.7739 58.587 43.7912 58.3938 43.7912C57.6913 43.7912 57.2523 43.3604 57.2523 42.6712V39.3973H59.0085V37.5881H57.2523V35.6927H55.496V36.8127C55.496 37.4502 55.1799 37.7604 54.5301 37.7604H54.0032V39.3973H55.2326V42.7573Z" fill="#161616"/>
<path d="M60.6722 45.5142H62.6918V40.9481C62.6918 39.9832 63.3065 39.3973 64.009 39.3973C64.7115 39.3973 65.3262 39.9832 65.3262 40.9481V45.5142H67.3459V40.9481C67.3459 39.9832 67.9606 39.3973 68.6631 39.3973C69.3656 39.3973 69.9803 39.9832 69.9803 40.9481V45.5142H72V40.7758C72 38.6219 70.8584 37.5019 69.1021 37.5019C68.3997 37.5019 67.8025 37.7604 67.381 38.0189C67.1351 38.1739 66.9244 38.3462 66.7312 38.5358C66.6083 38.3462 66.4327 38.1739 66.2219 38.0189C65.8531 37.7604 65.2735 37.5019 64.4481 37.5019C63.8685 37.5019 63.3943 37.7259 63.0607 37.9327C62.8675 38.0533 62.6743 38.2084 62.5162 38.3635L62.165 37.5881H60.6722V45.5142Z" fill="#161616"/>
</svg>
