<svg width="20" height="20" viewBox="0 0 20 20" fill="none" xmlns="http://www.w3.org/2000/svg">
<path d="M18.3332 7.49961V12.4996C18.3332 14.5829 17.9165 16.0413 16.9832 16.9829L11.6665 11.6663L18.1082 5.22461C18.2582 5.88294 18.3332 6.63294 18.3332 7.49961Z" stroke="#161616" stroke-width="1.5" stroke-linecap="round" stroke-linejoin="round"/>
<path d="M18.1082 5.22533L5.22483 18.1087C2.71649 17.5337 1.6665 15.8003 1.6665 12.5003V7.50033C1.6665 3.33366 3.33317 1.66699 7.49984 1.66699H12.4998C15.7998 1.66699 17.5332 2.717 18.1082 5.22533Z" stroke="#161616" stroke-width="1.5" stroke-linecap="round" stroke-linejoin="round"/>
<path d="M16.9834 16.9837C16.0418 17.917 14.5834 18.3337 12.5001 18.3337H7.50011C6.63344 18.3337 5.88343 18.2587 5.2251 18.1087L11.6668 11.667L16.9834 16.9837Z" stroke="#161616" stroke-width="1.5" stroke-linecap="round" stroke-linejoin="round"/>
<path d="M5.19973 6.64961C5.7664 4.20794 9.43307 4.20794 9.99974 6.64961C10.3247 8.08294 9.42473 9.29961 8.63306 10.0496C8.05806 10.5996 7.14974 10.5996 6.56641 10.0496C5.77474 9.29961 4.8664 8.08294 5.19973 6.64961Z" stroke="#161616" stroke-width="1.5"/>
<path d="M7.57908 7.24967H7.58657" stroke="#161616" stroke-width="2" stroke-linecap="round" stroke-linejoin="round"/>
</svg>
