<svg width="18" height="18" viewBox="0 0 18 18" fill="none" xmlns="http://www.w3.org/2000/svg">
<path d="M11.8575 15.135C11.6625 15.135 11.46 15.1275 11.2425 15.105C10.8525 15.075 10.41 15 9.9525 14.8875L8.6925 14.5875C5.235 13.77 4.1025 11.94 4.9125 8.49L5.6475 5.3475C5.8125 4.635 6.0075 4.0575 6.2475 3.5775C7.5375 0.915 10.005 1.155 11.76 1.5675L13.0125 1.86C14.7675 2.2725 15.8775 2.925 16.5 3.9225C17.115 4.92 17.2125 6.2025 16.8 7.9575L16.065 11.0925C15.42 13.8375 14.0775 15.135 11.8575 15.135ZM9.84 2.4375C8.5875 2.4375 7.7925 2.955 7.26 4.065C7.065 4.47 6.8925 4.9725 6.7425 5.6025L6.0075 8.745C5.34 11.58 6.1125 12.8175 8.9475 13.4925L10.2075 13.7925C10.6125 13.89 10.995 13.95 11.34 13.98C13.38 14.1825 14.3925 13.29 14.9625 10.8375L15.6975 7.7025C16.035 6.255 15.99 5.2425 15.54 4.515C15.09 3.7875 14.205 3.2925 12.75 2.955L11.4975 2.6625C10.875 2.5125 10.32 2.4375 9.84 2.4375Z" fill="#292D32"/>
<path d="M6.2475 16.6875C4.32 16.6875 3.09 15.5325 2.3025 13.095L1.3425 10.1325C0.277501 6.8325 1.23 4.9725 4.515 3.9075L5.7 3.525C6.09 3.405 6.3825 3.3225 6.645 3.2775C6.8625 3.2325 7.0725 3.315 7.2 3.4875C7.3275 3.66 7.35 3.885 7.26 4.08C7.065 4.4775 6.8925 4.98 6.75 5.61L6.015 8.7525C5.3475 11.5875 6.12 12.825 8.955 13.5L10.215 13.8C10.62 13.8975 11.0025 13.9575 11.3475 13.9875C11.5875 14.01 11.7825 14.175 11.85 14.4075C11.91 14.64 11.82 14.88 11.625 15.015C11.13 15.3525 10.5075 15.6375 9.72 15.8925L8.535 16.2825C7.6725 16.5525 6.9225 16.6875 6.2475 16.6875ZM5.835 4.665L4.8675 4.98C2.19 5.8425 1.5525 7.1025 2.415 9.7875L3.375 12.75C4.245 15.4275 5.505 16.0725 8.1825 15.21L9.3675 14.82C9.4125 14.805 9.45 14.79 9.495 14.775L8.7 14.5875C5.2425 13.77 4.11 11.94 4.92 8.49L5.655 5.3475C5.7075 5.1075 5.7675 4.875 5.835 4.665Z" fill="#292D32"/>
<path d="M13.1175 7.8825C13.0725 7.8825 13.0275 7.875 12.975 7.8675L9.3375 6.945C9.0375 6.87 8.8575 6.5625 8.9325 6.2625C9.0075 5.9625 9.315 5.7825 9.615 5.8575L13.2525 6.78C13.5525 6.855 13.7325 7.1625 13.6575 7.4625C13.5975 7.71 13.365 7.8825 13.1175 7.8825Z" fill="#292D32"/>
<path d="M10.92 10.4175C10.875 10.4175 10.83 10.41 10.7775 10.4025L8.595 9.8475C8.295 9.7725 8.115 9.465 8.19 9.165C8.265 8.865 8.5725 8.685 8.8725 8.76L11.055 9.315C11.355 9.39 11.535 9.6975 11.46 9.9975C11.4 10.2525 11.175 10.4175 10.92 10.4175Z" fill="#292D32"/>
</svg>
