<svg width="22" height="22" viewBox="0 0 22 22" fill="none" xmlns="http://www.w3.org/2000/svg">
<path d="M11 5.90332V8.95582" stroke="#A3ABB3" stroke-width="1.5" stroke-miterlimit="10" stroke-linecap="round"/>
<path d="M11.0184 1.8335C7.64503 1.8335 4.91336 4.56516 4.91336 7.9385V9.8635C4.91336 10.4868 4.6567 11.4218 4.33586 11.9535L3.1717 13.8968C2.4567 15.0977 2.95169 16.436 4.27169 16.876C8.65336 18.3335 13.3925 18.3335 17.7742 16.876C19.0117 16.4635 19.5434 15.0152 18.8742 13.8968L17.71 11.9535C17.3892 11.4218 17.1325 10.4777 17.1325 9.8635V7.9385C17.1234 4.5835 14.3734 1.8335 11.0184 1.8335Z" stroke="#A3ABB3" stroke-width="1.5" stroke-miterlimit="10" stroke-linecap="round"/>
<path d="M14.0525 17.2515C14.0525 18.929 12.6775 20.304 11 20.304C10.1658 20.304 9.39584 19.9556 8.84584 19.4056C8.29584 18.8556 7.94751 18.0856 7.94751 17.2515" stroke="#A3ABB3" stroke-width="1.5" stroke-miterlimit="10"/>
</svg>
