<svg width="16" height="16" viewBox="0 0 16 16" fill="none" xmlns="http://www.w3.org/2000/svg">
<path d="M7.99998 1.33301C4.31998 1.33301 1.33331 4.31967 1.33331 7.99967C1.33331 11.6797 4.31998 14.6663 7.99998 14.6663C11.68 14.6663 14.6666 11.6797 14.6666 7.99967C14.6666 4.31967 11.68 1.33301 7.99998 1.33301ZM4.39998 7.48634C4.51331 6.69301 4.86665 5.97967 5.41998 5.41967C6.75331 4.09301 8.85331 4.01967 10.28 5.17967V4.54634C10.28 4.27301 10.5066 4.04634 10.78 4.04634C11.0533 4.04634 11.28 4.27301 11.28 4.54634V6.32634C11.28 6.59967 11.0533 6.82634 10.78 6.82634H8.99998C8.72665 6.82634 8.49998 6.59967 8.49998 6.32634C8.49998 6.05301 8.72665 5.82634 8.99998 5.82634H9.49998C8.46665 5.10634 7.03998 5.20634 6.11998 6.12634C5.71998 6.52634 5.46665 7.04634 5.37998 7.62634C5.34665 7.87301 5.13331 8.05301 4.88665 8.05301C4.85998 8.05301 4.83998 8.05301 4.81331 8.04634C4.55331 8.01301 4.35998 7.75967 4.39998 7.48634ZM10.58 10.5797C9.86665 11.293 8.93331 11.6463 7.99998 11.6463C7.18665 11.6463 6.37998 11.3597 5.71331 10.8197V11.4463C5.71331 11.7197 5.48665 11.9463 5.21331 11.9463C4.93998 11.9463 4.71331 11.7197 4.71331 11.4463V9.66634C4.71331 9.39301 4.93998 9.16634 5.21331 9.16634H6.99331C7.26665 9.16634 7.49331 9.39301 7.49331 9.66634C7.49331 9.93967 7.26665 10.1663 6.99331 10.1663H6.49331C7.52665 10.8863 8.95331 10.7863 9.87331 9.86634C10.2733 9.46634 10.5266 8.94634 10.6133 8.36634C10.6533 8.09301 10.9 7.89967 11.18 7.93967C11.4533 7.97967 11.64 8.23301 11.6066 8.50634C11.4866 9.31301 11.1333 10.0263 10.58 10.5797Z" fill="#3CA4E7"/>
</svg>
