<svg width="20" height="20" viewBox="0 0 20 20" fill="none" xmlns="http://www.w3.org/2000/svg">
<path d="M12.5 18.9584H7.50001C2.97501 18.9584 1.04167 17.0251 1.04167 12.5001V7.50008C1.04167 2.97508 2.97501 1.04175 7.50001 1.04175H12.5C17.025 1.04175 18.9583 2.97508 18.9583 7.50008V12.5001C18.9583 17.0251 17.025 18.9584 12.5 18.9584ZM7.50001 2.29175C3.65834 2.29175 2.29167 3.65841 2.29167 7.50008V12.5001C2.29167 16.3417 3.65834 17.7084 7.50001 17.7084H12.5C16.3417 17.7084 17.7083 16.3417 17.7083 12.5001V7.50008C17.7083 3.65841 16.3417 2.29175 12.5 2.29175H7.50001Z" fill="#161616"/>
<path d="M12.9833 16.0417C12.6417 16.0417 12.3583 15.7584 12.3583 15.4167V12.1667C12.3583 11.8251 12.6417 11.5417 12.9833 11.5417C13.325 11.5417 13.6083 11.8251 13.6083 12.1667V15.4167C13.6083 15.7584 13.325 16.0417 12.9833 16.0417Z" fill="#161616"/>
<path d="M12.9833 6.83325C12.6417 6.83325 12.3583 6.54992 12.3583 6.20825V4.58325C12.3583 4.24159 12.6417 3.95825 12.9833 3.95825C13.325 3.95825 13.6083 4.24159 13.6083 4.58325V6.20825C13.6083 6.54992 13.325 6.83325 12.9833 6.83325Z" fill="#161616"/>
<path d="M12.9833 11.1666C11.4417 11.1666 10.1917 9.91659 10.1917 8.37492C10.1917 6.83325 11.4417 5.58325 12.9833 5.58325C14.525 5.58325 15.775 6.83325 15.775 8.37492C15.775 9.91659 14.5167 11.1666 12.9833 11.1666ZM12.9833 6.83325C12.1333 6.83325 11.4417 7.52492 11.4417 8.37492C11.4417 9.22492 12.1333 9.91659 12.9833 9.91659C13.8333 9.91659 14.525 9.22492 14.525 8.37492C14.525 7.52492 13.825 6.83325 12.9833 6.83325Z" fill="#161616"/>
<path d="M7.01666 16.0417C6.675 16.0417 6.39166 15.7584 6.39166 15.4167V13.7917C6.39166 13.4501 6.675 13.1667 7.01666 13.1667C7.35833 13.1667 7.64166 13.4501 7.64166 13.7917V15.4167C7.64166 15.7584 7.36666 16.0417 7.01666 16.0417Z" fill="#161616"/>
<path d="M7.01666 8.45825C6.675 8.45825 6.39166 8.17492 6.39166 7.83325V4.58325C6.39166 4.24159 6.675 3.95825 7.01666 3.95825C7.35833 3.95825 7.64166 4.24159 7.64166 4.58325V7.83325C7.64166 8.17492 7.36666 8.45825 7.01666 8.45825Z" fill="#161616"/>
<path d="M7.01667 14.4166C5.47501 14.4166 4.22501 13.1666 4.22501 11.6249C4.22501 10.0833 5.47501 8.83325 7.01667 8.83325C8.55834 8.83325 9.80834 10.0833 9.80834 11.6249C9.80834 13.1666 8.55834 14.4166 7.01667 14.4166ZM7.01667 10.0833C6.16667 10.0833 5.47501 10.7749 5.47501 11.6249C5.47501 12.4749 6.16667 13.1666 7.01667 13.1666C7.86667 13.1666 8.55834 12.4749 8.55834 11.6249C8.55834 10.7749 7.87501 10.0833 7.01667 10.0833Z" fill="#161616"/>
</svg>
