<svg width="18" height="18" viewBox="0 0 18 18" fill="none" xmlns="http://www.w3.org/2000/svg">
<path d="M3.30357 11.6448L6.70107 15.0423C8.09607 16.4373 10.3611 16.4373 11.7636 15.0423L15.0561 11.7498C16.4511 10.3548 16.4511 8.08977 15.0561 6.68727L11.6511 3.29728C10.9386 2.58478 9.95607 2.20228 8.95107 2.25478L5.20107 2.43478C3.70107 2.50228 2.50857 3.69478 2.43357 5.18728L2.25357 8.93727C2.20857 9.94977 2.59107 10.9323 3.30357 11.6448Z" stroke="#161616" stroke-linecap="round" stroke-linejoin="round"/>
<path d="M7.30107 9.16978C8.3366 9.16978 9.17607 8.33031 9.17607 7.29478C9.17607 6.25924 8.3366 5.41978 7.30107 5.41978C6.26553 5.41978 5.42607 6.25924 5.42607 7.29478C5.42607 8.33031 6.26553 9.16978 7.30107 9.16978Z" stroke="#161616" stroke-linecap="round"/>
<path d="M9.92607 12.9198L12.9261 9.91978" stroke="#161616" stroke-miterlimit="10" stroke-linecap="round" stroke-linejoin="round"/>
</svg>
