<svg width="16" height="16" viewBox="0 0 16 16" fill="none" xmlns="http://www.w3.org/2000/svg">
<path d="M12 12.5733H11.4933C10.96 12.5733 10.4533 12.78 10.08 13.1533L8.93998 14.28C8.41998 14.7933 7.57334 14.7933 7.05334 14.28L5.91333 13.1533C5.54 12.78 5.02667 12.5733 4.5 12.5733H4C2.89333 12.5733 2 11.6867 2 10.5933V3.31998C2 2.22664 2.89333 1.34 4 1.34H12C13.1067 1.34 14 2.22664 14 3.31998V10.5933C14 11.68 13.1067 12.5733 12 12.5733Z" stroke="#161616" stroke-miterlimit="10" stroke-linecap="round" stroke-linejoin="round"/>
<path d="M8 6.66668C8.85788 6.66668 9.55334 5.97121 9.55334 5.11333C9.55334 4.25545 8.85788 3.56003 8 3.56003C7.14212 3.56003 6.44666 4.25545 6.44666 5.11333C6.44666 5.97121 7.14212 6.66668 8 6.66668Z" stroke="#161616" stroke-linecap="round" stroke-linejoin="round"/>
<path d="M10.6667 10.44C10.6667 9.23999 9.47333 8.26669 8 8.26669C6.52667 8.26669 5.33333 9.23999 5.33333 10.44" stroke="#161616" stroke-linecap="round" stroke-linejoin="round"/>
</svg>
